/* XPM */
static char * bird_xpm[] = {
"50 50 2 1",
" 	c #255255255",
".	c #000000",
"                                                  ",
"                                                  ",
"                                                  ",
"                                                  ",
"                                                  ",
"                                                  ",
"                                                  ",
"                                                  ",
"                                                  ",
"                                                  ",
"                                                  ",
"                                                  ",
"                                                  ",
"                                                  ",
"                                                  ",
"                                                  ",
"                                                  ",
"                                                  ",
"                                                  ",
"                                                  ",
"                                                  ",
"                                                  ",
"                                                  ",
"                                                  ",
"                        ..                        ",
"                      .......                     ",
"                     ...... ..                    ",
"                    ....... ......                ",
"                   .................              ",
"                  ................                ",
"                  ............                    ",
"                 .............                    ",
"               ..............                     ",
"           .   ... .........                      ",
"          .  ...... ........                      ",
"           ........ ........                      ",
"          ..................                      ",
"         .......... ........                      ",
"        ........... .......                       ",
"       ............ .......                       ",
"      ............ ........                       ",
"    . ...........  ........                       ",
"     ............  ........                       ",
"   . ............  .......                        ",
"    .............  .......                        ",
"  . ............. .......                         ",
"   .............. .......                         ",
" . .............  ......                          ",
"  .............. .......                          ",
". ............. .......                           "};
