/* XPM */
static char * east_wall_xpm[] = {
"50 50 354 2",
"  	c #CEC6B3",
". 	c #C1BAA7",
"+ 	c #AAA391",
"@ 	c #CEC7B5",
"# 	c #BAB4A4",
"$ 	c #C6C0B0",
"% 	c #9A9786",
"& 	c #B0AD9E",
"* 	c #C5BFAF",
"= 	c #C4BEAE",
"- 	c #C1BBAB",
"; 	c #BCB6A6",
"> 	c #B9B3A3",
", 	c #BBB5A5",
"' 	c #BBB6A3",
") 	c #CEC9B6",
"! 	c #AFAA97",
"~ 	c #C1BCA9",
"{ 	c #D0CBB8",
"] 	c #C3BEAB",
"^ 	c #B2AD9A",
"/ 	c #CAC5B2",
"( 	c #B8B3A0",
"_ 	c #BCB7A4",
": 	c #C5C0AD",
"< 	c #C7C2AF",
"[ 	c #C5C0AC",
"} 	c #C0BBA7",
"| 	c #C3BEAA",
"1 	c #C2BDA9",
"2 	c #C7C2AE",
"3 	c #C4BFAB",
"4 	c #BBB6A2",
"5 	c #C9C4B0",
"6 	c #BDB8A5",
"7 	c #9A9582",
"8 	c #C4BFAC",
"9 	c #C2BCAE",
"0 	c #BDB7A9",
"a 	c #C0B8A5",
"b 	c #B8B19E",
"c 	c #B4AD9B",
"d 	c #C2BBA9",
"e 	c #C2BCAC",
"f 	c #9F9C8B",
"g 	c #A5A293",
"h 	c #C0BAAA",
"i 	c #BDB7A7",
"j 	c #BFB9A9",
"k 	c #BFBAA7",
"l 	c #C0BBA8",
"m 	c #BEB9A6",
"n 	c #B9B4A1",
"o 	c #B4AF9C",
"p 	c #B7B29F",
"q 	c #BAB5A2",
"r 	c #BAB5A1",
"s 	c #BDB8A4",
"t 	c #BFBAA6",
"u 	c #B2AD99",
"v 	c #989380",
"w 	c #C3BBA8",
"x 	c #BCB5A2",
"y 	c #C6BFAD",
"z 	c #BEB7A5",
"A 	c #CEC8B8",
"B 	c #B0AD9C",
"C 	c #A9A697",
"D 	c #BEB8A8",
"E 	c #CBC5B5",
"F 	c #C3BDAD",
"G 	c #C9C3B3",
"H 	c #D2CCBC",
"I 	c #B8B2A2",
"J 	c #C2BDAA",
"K 	c #C6C1AE",
"L 	c #9A9484",
"M 	c #C8C2B2",
"N 	c #C9C1AE",
"O 	c #BFB8A5",
"P 	c #C5BEAC",
"Q 	c #BAB3A1",
"R 	c #3B3833",
"S 	c #000000",
"T 	c #747064",
"U 	c #908A7A",
"V 	c #D1C9B6",
"W 	c #C5BEAB",
"X 	c #C1BAA8",
"Y 	c #C7C0AE",
"Z 	c #393732",
"` 	c #726E64",
" .	c #C7C1B1",
"..	c #928C7C",
"+.	c #C8C3B0",
"@.	c #C6BEAB",
"#.	c #B9B2A0",
"$.	c #CCC5B3",
"%.	c #373530",
"&.	c #6F6B61",
"*.	c #B7B1A1",
"=.	c #BAB4A6",
"-.	c #BEB8AA",
";.	c #C5BFB1",
">.	c #989284",
",.	c #BFB9AB",
"'.	c #AAA28F",
").	c #ABA491",
"!.	c #A59E8C",
"~.	c #B1AA98",
"{.	c #2F2D27",
"].	c #646056",
"^.	c #A59F8F",
"/.	c #ABA595",
"(.	c #A7A191",
"_.	c #ACA696",
":.	c #ADA797",
"<.	c #A29C8C",
"[.	c #AAA494",
"}.	c #A8A294",
"|.	c #A6A092",
"1.	c #ACA698",
"2.	c #B2AC9E",
"3.	c #8D8779",
"4.	c #AEA89A",
"5.	c #B2ACA0",
"6.	c #B0AA9E",
"7.	c #A69E8B",
"8.	c #A7A08E",
"9.	c #A29B89",
"0.	c #2C2A25",
"a.	c #656158",
"b.	c #9D9789",
"c.	c #A39D8F",
"d.	c #ADA799",
"e.	c #A49E90",
"f.	c #A9A395",
"g.	c #A19B8D",
"h.	c #A59F91",
"i.	c #B1AB9D",
"j.	c #918B7D",
"k.	c #A7A096",
"l.	c #B3AE9D",
"m.	c #B1AB9B",
"n.	c #C6C0B2",
"o.	c #8E887A",
"p.	c #C4BEB0",
"q.	c #AFA999",
"r.	c #C9C3B5",
"s.	c #BCB6A8",
"t.	c #B5AFA3",
"u.	c #BFB9AD",
"v.	c #C4BEB2",
"w.	c #BFBCA9",
"x.	c #BCB9A6",
"y.	c #C9C2B0",
"z.	c #BCB5A3",
"A.	c #C5BCAB",
"B.	c #BBB4A2",
"C.	c #C3BCAA",
"D.	c #B8B19F",
"E.	c #CBC4B2",
"F.	c #BFB8A6",
"G.	c #383631",
"H.	c #B5B09F",
"I.	c #969082",
"J.	c #C0BAAC",
"K.	c #BDB7AB",
"L.	c #C3BDB1",
"M.	c #C0BAAE",
"N.	c #C2BFAC",
"O.	c #BEBBA8",
"P.	c #CCC3B2",
"Q.	c #C4BDAB",
"R.	c #B5AE9C",
"S.	c #383630",
"T.	c #B0AC9A",
"U.	c #B1AC99",
"V.	c #B5B09D",
"W.	c #8F897B",
"X.	c #C7C1B5",
"Y.	c #C1BEAB",
"Z.	c #C8C1AF",
"`.	c #C7BEAD",
" +	c #BDB6A4",
".+	c #C0B9A7",
"++	c #AFAB99",
"@+	c #B6B19E",
"#+	c #B0AB98",
"$+	c #C9C4B1",
"%+	c #908A7C",
"&+	c #B5AFA1",
"*+	c #B9B3A5",
"=+	c #C4C1AE",
"-+	c #B8AF9E",
";+	c #B6B1A0",
">+	c #8C8678",
",+	c #B8B2A4",
"'+	c #C1BBAF",
")+	c #BAB7A4",
"!+	c #B2A998",
"~+	c #B3AC9A",
"{+	c #B5AF9F",
"]+	c #B8B4A2",
"^+	c #CBC6B3",
"/+	c #878173",
"(+	c #C1BBAD",
"_+	c #BEB8AC",
":+	c #C3C0AD",
"<+	c #BBB2A1",
"[+	c #B0A997",
"}+	c #37352F",
"|+	c #B4AF9E",
"1+	c #C7C1B3",
"2+	c #C6C0B4",
"3+	c #C6C3B0",
"4+	c #C5C2AF",
"5+	c #C2B9A8",
"6+	c #CAC3B1",
"7+	c #B6AF9D",
"8+	c #36342F",
"9+	c #B1AC9B",
"0+	c #8A8476",
"a+	c #B6B0A2",
"b+	c #CAC4B4",
"c+	c #B8B2A6",
"d+	c #C2BCB0",
"e+	c #CBC8B5",
"f+	c #C8C5B2",
"g+	c #C1B8A7",
"h+	c #32302A",
"i+	c #CDC7B9",
"j+	c #CCC7B4",
"k+	c #33322B",
"l+	c #CCC6B8",
"m+	c #948E80",
"n+	c #C3BDAF",
"o+	c #36342E",
"p+	c #CCC6B6",
"q+	c #BBB5A7",
"r+	c #B6B0A0",
"s+	c #383730",
"t+	c #898375",
"u+	c #3A3832",
"v+	c #AEAA98",
"w+	c #CFC9BB",
"x+	c #B7B1A3",
"y+	c #393731",
"z+	c #69665C",
"A+	c #BAB4A8",
"B+	c #36352E",
"C+	c #646156",
"D+	c #C5BFB3",
"E+	c #34332C",
"F+	c #5D5A4F",
"G+	c #BBB5A9",
"H+	c #C9C3B7",
"I+	c #35332F",
"J+	c #646159",
"K+	c #B9B3A7",
"L+	c #B6AFA5",
"M+	c #B9B2A8",
"N+	c #A9A298",
"O+	c #ADA69E",
"P+	c #BCB6AA",
"Q+	c #AEA898",
"R+	c #B4AE9E",
"S+	c #9B9585",
"T+	c #948E7E",
"U+	c #9A9486",
"V+	c #535048",
"W+	c #938D7F",
"X+	c #999387",
"Y+	c #9A9488",
"Z+	c #9F988E",
"`+	c #928B81",
" @	c #958E84",
".@	c #979185",
"+@	c #969080",
"@@	c #8F8979",
"#@	c #979181",
"$@	c #999383",
"%@	c #3B3834",
"&@	c #B6B0A3",
"*@	c #CBC5B7",
"=@	c #B4AEA0",
"-@	c #BCB5AB",
";@	c #BEB7AD",
">@	c #A09A8C",
",@	c #AFAA9B",
"'@	c #888274",
")@	c #3B3933",
"!@	c #B1AC9D",
"~@	c #B8B39F",
"{@	c #B7B1A5",
"]@	c #AFA99B",
"^@	c #8F8A77",
"/@	c #CDC8B5",
"(@	c #C7BFAC",
"_@	c #C2BBA8",
":@	c #B3AD9F",
"<@	c #8E8976",
"[@	c #C5BDAA",
"}@	c #B0AB9C",
"|@	c #8D8875",
"1@	c #B7B09E",
"2@	c #C2BAA7",
"3@	c #C0B9A6",
"4@	c #ADA899",
"5@	c #C1B9A6",
"6@	c #ACA697",
"7@	c #B3AE9B",
"8@	c #908B78",
"9@	c #C3BCA9",
"0@	c #ACA798",
"a@	c #C4BCA9",
"b@	c #8C8774",
"c@	c #8A8572",
"d@	c #B3AD9D",
"e@	c #35332E",
"f@	c #ADA997",
"g@	c #BCB7A3",
"h@	c #C1BCA8",
"i@	c #BEB9A5",
"j@	c #B9B4A0",
"k@	c #98937F",
"l@	c #B3AE9A",
"m@	c #878171",
"n@	c #B0AA9A",
"o@	c #A7A295",
"p@	c #B0AA9C",
"q@	c #868072",
"r@	c #A5A08D",
"s@	c #ADA895",
"t@	c #A9A393",
"u@	c #302E29",
"v@	c #9A9588",
"w@	c #A29C8E",
"x@	c #9C9688",
"y@	c #ABA597",
"z@	c #8B8577",
"A@	c #9E988A",
"B@	c #A39E8B",
"C@	c #BBB6A7",
"D@	c #B6B2A1",
"E@	c #33312C",
"F@	c #ABA694",
"G@	c #B7B29E",
"H@	c #CBC6B2",
"I@	c #B0AB97",
"J@	c #CCC7B3",
"K@	c #B6B19D",
"L@	c #C6C1AD",
"M@	c #CFC8B6",
"  . + @ # $ % & * = - ; > , - $ ' ) ! ~ { ' ] ^ ] / ] ( _ ] : < [ } | 1 2 3 4 5 : _ 6 ~ 7 ( _ 8 9 0 ",
"a b c d - e f g - - h i > > ; j 8 / k l : k m ( ] ] ] l n o p q | r s t | s u 3 l n n _ v _ ~ : e , ",
"w x y z A = B C i h - h D ; i D e D E F i * i , = i G H e I i j < 6 l J K k o : F j D i L F M M ] q ",
"N O P Q R S S S S S S S S S S S S S S S S S S S S S S S S S S S T _ k ' k k o m D j j I U > h j 2 s ",
"V W X Y Z S S S S S S S S S S S S S S S S S S S S S S S S S S S ` e  .# h G D j D =  .D ..> h - +.m ",
"@.. #.$.%.S S S S S S S S S S S S S S S S S S S S S S S S S S S &.j = *.i M i i =.-.;.9 >.=.,.9 h # ",
"'.).!.~.{.S S S S S S S S S S S S S S S S S S S S S S S S S S S ].^./.(._.:.<.[.}.|.1.2.3.1.1.4.5.6.",
"7.).8.9.0.S S S S S S S S S S S S S S S S S S S S S S S S S S S a.b.c.}.d.e.>.f.f.g.h.i.j.d.}.|.k.k.",
"F # , = Z S S S S S l.6 ( 8 8 J _ ( m.j  .n.o.p.> q.; r.s.t.u.v.w.x.n +.y.z.X A.Q B.C.D.X E.c ~.X F.",
"* j D e G.S S S S S H.8 ] 8 _ 8 6 8 j F * r.I.r.M ; - r.J.K.L.M.N.O.p k d z.Y P.F.F.Q.Q F.Q.~.R.X C.",
"* = e h S.S S S S S T.k : m U.: V.8 h # *.,.W.9 $ ; ; ,.-.v.X.M.Y.N.n ' z z Z.`.y d C. +.+F.R..+.+y ",
"j = F j %.S S S S S ++@+l m #+K m $+= j , ,.%+n.h i > &+*+v.X.u.x.=+m k X .+C.-+y.X B.z P d z E.F.C.",
"I j e D %.S S S S S ;+@+J < ( 8 < < j F e ,.>+n.* G e ,+*+M.'+u.)+=+k k d X X !+$..+~+z.y.Q.C.E.X .+",
"{+, D i %.S S S S S ]+' J ^+_ q : ~ > F = -./+(+- G F *+s._+u.v.w.:+' _ .+X y <+$.C.[+B.y.d d d C..+",
"# , , ; }+S S S S S |+6 6 K _ q 8 < -  .G 1+W.9 ; * j =.J.u.K.2+3+4+q 6 d d Z.5+6+y.7+F.6+X d  +.+X ",
"j ; # , 8+S S S S S 9+k q J ~ : o J j D D 9 0+a+* b+e -.n.u.c+d+e+f+6 ] Y d y g+y @  +Q.$.d y F.z.X ",
"o < $+: h+S S S S S 9+/ _ ~ / 6 ] 8 = i ; i+j.*+J.0 ,.-.=.(+1+(+* e e $ * h D h @+l q m 8 +.j+m J m ",
"n ] K ~ k+S S S S S 9+^+6 ~ +.' ' ~ M - i l+m+9 =.-.;.(+&+,+n+;.# i = G $ j i j @+~ 6 k ~ J : p ~ 6 ",
"l 6 ] 6 o+S S S S S T./ k l : ' ' ] p+* ; n.o.-.q+,.1+9 a+,+n+p.r+; =  .e ; D F p ] l ~ l 6 J ( : ~ ",
"K n J 6 s+S S S S S ++< l k ] k m ~  .F i n.t+&+- - * F ; j = j ,.(+9 J.s.q+,.;.q K J ] l 6 K ~ : J ",
"< ( J ~ u+S S S S S v+8 l m ] K m q ; D e w+W.x+D h M $ ; D e D 1+n.n+,.0 -.,.J.k +.J J m ' < K k 6 ",
"8 n ~ : y+S S S S S S S S S S S S S S S S S S S S S S S S S S z+v.2+2+v.L.L.u.A+J +.l k ' ( ] 8 m 6 ",
"l _ m < B+S S S S S S S S S S S S S S S S S S S S S S S S S S C+_+v.X.D+L.L.d+_+k ] _ k 6 ( J ~ ~ J ",
"6 6 ' < E+S S S S S S S S S S S S S S S S S S S S S S S S S S F+G+L.2+'+K.'+2+H+n m q l ~ 6 : J l ] ",
", *.J.-.I+S S S S S S S S S S S S S S S S S S S S S S S S S S J+&+2.'+K+L+M+N+O+M.P+M.*+J.{+Q+* m.R+",
"S+T+>.U+0.S S S S S S S S S S S S S S S S S S S S S S S S S S V+W+%+b.X+Y+Z+`+ @.@X+X+%+>++@@@#@$@$@",
"h D = p.%@S S S S S &@n.9 s.-.*@0 1+=@s.p.q+9 =.p.0 =.s.-.,.9 n.=.&+0 _+'+D+-@;@_+D+'+*+>@ .h I M $ ",
"V.m b+= Z S S S S S 2.h F , *.F h E {+; * D  .i  .* j D e e = p+e ; 0 ,.L.v.u.;@G+'+K.s.o.F - r+b+G ",
"q J ^+= Z S S S S S ,@i = j r+; = * h > h $ j - $ * ; > - j i  . .- , J.p.'+'+M._+u.P+9 '@D j i h h ",
"3 ~ J m )@S S S S S !@- $ * D ; F D G r+, b+*.e $ $ > r+e j I e : ~ I h n+-.;.D+v.'+K.p.o.D - F , i ",
"} ~@( p S.S S S S S ++~ 6 k l ( k l ^+( ' $+q : / j+' n ^+< ' 8 K : n F = s.r.*@'+u.{@a+o.D i , F = ",
"t s | l S.S S S S S l.: q m : _ V.m 8 @+( l q ~ K < V.o $+: p k 8 8 @+h j =@p.1+L.v.K+]@m+* e I e e ",
"@.. z.P Z S S S S S =@F ; e  .D ] : 6 : ' ] q 6 ~ k _ 6 : $+k ! p+* {+i A ; q. .k ] J n ^@/@J ' Q d ",
"(@_@z P Z S S S S S :@= j = $ , ' m q m 6 K J l q J 8 m 6 8 K J $ G , # b+= > * 6 J : 6 <@< k l X d ",
"[@_@z C.S.S S S S S }@= e $ * > _ l J n k 8 : q _ +.^+~ _ ] K ~ ; M D R+e  .D D ' ~ K J |@l ' : Q 1@",
"2@3@ +X 8+S S S S S 4@e - $ * # _ 8 j+( l k K ( q 8 < J ] / 8 V.# $ h r+h  .h , 6 k : ] <@m n K P Q.",
"5@3@z X o+S S S S S 6@h D = $ D 7@l /@n m 6 < m #+q l l 8 / K _ e $ F - $  .e h l k J ~ 8@l n ] z .+",
"w 9@.+P %.S S S S S 0@j ; -  .F V.J ^+m ' q l _ o _ ] J 6 _ l : = - e  . .F - - ~ l ~ m ^@8 q m P Z.",
"a@9@X Y G.S S S S S ,@- , D $ * 6 : : : 6 l ' ' l l 8 +.J ( n ~ D , h * F e e D m J ] ' b@: _ _ z  +",
"w _@.+Y y+S S S S S 2.= ; i * $ m J _ $+] j+J 8 : ' 6 j+{ 8 q ' , i = * e  .G j ' 8 K ' c@: 6 ' y.C.",
"p+d@$ D e@S S S S S f@| g@4 } h@$ - E = , F E h $+8 l k J K K : i@2 t 3 g@i@j@2 2 ~@s | k@h@| l@~ k ",
"G r+ .h %.S S S S S v+J q n k l e i M $ e b+G j _ m J ] J ~ ~ J ~ ] q : ~ l V.~ ~ 6 _ < 8@: : m q ' ",
"e I e i G.S S S S S 6@j r+{+, i h > j j j G j j V._ ] ] k _ k ] e h {+$  .* *.h > h # $ m@F h - ] < ",
"> m.m.n@8+S S S S S S S S S S S S S S S S S S S S S S S S S S S S o@]@*+q+J.=@*+p@x+a+*+q@x+&+2.r@s@",
"t@<.L L u@S S S S S S S S S S S S S S S S S S S S S S S S S S S S v@w@>@x@}.>@w@g.g.y@c.z@|.}.A@7 B@",
" .F # > G.S S S S S S S S S S S S S S S S S S S S S S S S S S S S C@ .e *.- , h - , b+F i b+E - p k ",
"e = - i e@S S S S S S S S S S S S S S S S S S S S S S S S S S S S D@] $+m 6 @+8 l n J +.m / ] 8 ' ~ ",
"i = M e E@S S S S S S S S S S S S S S S S S S S S S S S S S S S S F@G@H@3 j@I@2 t r 4 J@K@L@G@| m ] ",
"X Z. +y. +z..+P X  +y.C.Q.z.Q.z l _ K 6 ~ J ^@6 Y Q.d ~+B.M@y z.d y y B.1@y @ d d P B.C. +F.D.Z.C.Q.",
"d y.z.Z.z.z..+y C.z y.C.Q.B.Q. +k _ K 6 ~ J ^@6 C.Q.y 7+D.6+P .+d Q.C.#.c Q.$.X B.Q..+y.z B.7+y.X C."};
