/* XPM */
static char * west_wall_xpm[] = {
"50 50 527 2",
"  	c #CEC6B3",
". 	c #C1BAA7",
"+ 	c #AAA391",
"@ 	c #CEC7B5",
"# 	c #BAB4A4",
"$ 	c #C6C0B0",
"% 	c #9A9786",
"& 	c #B0AD9E",
"* 	c #C5BFAF",
"= 	c #C4BEAE",
"- 	c #C1BBAB",
"; 	c #BCB6A6",
"> 	c #B9B3A3",
", 	c #BBB5A5",
"' 	c #BBB6A3",
") 	c #CEC9B6",
"! 	c #AFAA97",
"~ 	c #C1BCA9",
"{ 	c #D0CBB8",
"] 	c #C3BEAB",
"^ 	c #B2AD9A",
"/ 	c #CAC5B2",
"( 	c #B8B3A0",
"_ 	c #BCB7A4",
": 	c #C5C0AD",
"< 	c #C7C2AF",
"[ 	c #C5C0AC",
"} 	c #C0BBA7",
"| 	c #C3BEAA",
"1 	c #C2BDA9",
"2 	c #C7C2AE",
"3 	c #C4BFAB",
"4 	c #BBB6A2",
"5 	c #C9C4B0",
"6 	c #BDB8A5",
"7 	c #9A9582",
"8 	c #C4BFAC",
"9 	c #C2BCAE",
"0 	c #BDB7A9",
"a 	c #C0B8A5",
"b 	c #B8B19E",
"c 	c #B4AD9B",
"d 	c #C2BBA9",
"e 	c #C2BCAC",
"f 	c #9F9C8B",
"g 	c #A5A293",
"h 	c #C0BAAA",
"i 	c #BDB7A7",
"j 	c #BFB9A9",
"k 	c #BFBAA7",
"l 	c #C0BBA8",
"m 	c #BEB9A6",
"n 	c #B9B4A1",
"o 	c #B4AF9C",
"p 	c #B7B29F",
"q 	c #BAB5A2",
"r 	c #BAB5A1",
"s 	c #BDB8A4",
"t 	c #BFBAA6",
"u 	c #B2AD99",
"v 	c #989380",
"w 	c #C3BBA8",
"x 	c #BCB5A2",
"y 	c #C6BFAD",
"z 	c #BEB7A5",
"A 	c #CEC8B8",
"B 	c #B0AD9C",
"C 	c #A9A697",
"D 	c #BEB8A8",
"E 	c #CBC5B5",
"F 	c #C3BDAD",
"G 	c #C9C3B3",
"H 	c #D2CCBC",
"I 	c #B8B2A2",
"J 	c #C2BDAA",
"K 	c #C6C1AE",
"L 	c #9A9484",
"M 	c #C8C2B2",
"N 	c #C9C1AE",
"O 	c #BFB8A5",
"P 	c #C5BEAC",
"Q 	c #BAB3A1",
"R 	c #AEAB9A",
"S 	c #ADAA9B",
"T 	c #B7B1A1",
"U 	c #B5AF9F",
"V 	c #C7C1B1",
"W 	c #B2AC9C",
"X 	c #B6B0A0",
"Y 	c #908A7A",
"Z 	c #D1C9B6",
"` 	c #C5BEAB",
" .	c #C1BAA8",
"..	c #C7C0AE",
"+.	c #A8A594",
"@.	c #B4B1A2",
"#.	c #CCC6B6",
"$.	c #AFA999",
"%.	c #928C7C",
"&.	c #C8C3B0",
"*.	c #C6BEAB",
"=.	c #B9B2A0",
"-.	c #CCC5B3",
";.	c #9E9B8A",
">.	c #C1BBAD",
",.	c #BCB6A8",
"'.	c #B4AEA0",
").	c #BEB8AA",
"!.	c #B6B0A2",
"~.	c #C4BEB0",
"{.	c #C0BAAC",
"].	c #BAB4A6",
"^.	c #BFB9AB",
"/.	c #BBB5A7",
"(.	c #C6C0B2",
"_.	c #C9C3B5",
":.	c #C5BFB1",
"<.	c #989284",
"[.	c #AAA28F",
"}.	c #ABA491",
"|.	c #A59E8C",
"1.	c #B1AA98",
"2.	c #A59F8F",
"3.	c #AEA898",
"4.	c #928F7E",
"5.	c #A09D8E",
"6.	c #AAA494",
"7.	c #ABA595",
"8.	c #A8A292",
"9.	c #A39D8D",
"0.	c #A7A191",
"a.	c #B7B1A3",
"b.	c #ADA799",
"c.	c #B0AA9C",
"d.	c #B2AC9E",
"e.	c #B1AB9D",
"f.	c #A9A395",
"g.	c #A39D8F",
"h.	c #B9B3A5",
"i.	c #A7A193",
"j.	c #ABA597",
"k.	c #AEA89A",
"l.	c #B3AD9F",
"m.	c #A49E8E",
"n.	c #ACA696",
"o.	c #ADA797",
"p.	c #A29C8C",
"q.	c #A8A294",
"r.	c #A6A092",
"s.	c #ACA698",
"t.	c #8D8779",
"u.	c #B2ACA0",
"v.	c #B0AA9E",
"w.	c #A69E8B",
"x.	c #A7A08E",
"y.	c #A29B89",
"z.	c #9E9888",
"A.	c #A6A394",
"B.	c #A19B8B",
"C.	c #A6A090",
"D.	c #958F81",
"E.	c #A19B8D",
"F.	c #847E70",
"G.	c #A59F91",
"H.	c #A49E90",
"I.	c #9D9789",
"J.	c #918B7D",
"K.	c #A7A096",
"L.	c #B1AB9B",
"M.	c #8E887A",
"N.	c #B5AFA3",
"O.	c #BFB9AD",
"P.	c #C4BEB2",
"Q.	c #BFBCA9",
"R.	c #BCB9A6",
"S.	c #C9C2B0",
"T.	c #BCB5A3",
"U.	c #C5BCAB",
"V.	c #BBB4A2",
"W.	c #C3BCAA",
"X.	c #B8B19F",
"Y.	c #CBC4B2",
"Z.	c #BFB8A6",
"`.	c #969082",
" +	c #BDB7AB",
".+	c #C3BDB1",
"++	c #C0BAAE",
"@+	c #C2BFAC",
"#+	c #BEBBA8",
"$+	c #CCC3B2",
"%+	c #C4BDAB",
"&+	c #B5AE9C",
"*+	c #B1AC99",
"=+	c #B5B09D",
"-+	c #8F897B",
";+	c #C7C1B5",
">+	c #C1BEAB",
",+	c #C8C1AF",
"'+	c #C7BEAD",
")+	c #BDB6A4",
"!+	c #C0B9A7",
"~+	c #C9C4B1",
"{+	c #B6B19E",
"]+	c #B0AB98",
"^+	c #908A7C",
"/+	c #B5AFA1",
"(+	c #C4C1AE",
"_+	c #B8AF9E",
":+	c #CDC8B5",
"<+	c #8C8678",
"[+	c #B8B2A4",
"}+	c #C1BBAF",
"|+	c #BAB7A4",
"1+	c #B2A998",
"2+	c #B3AC9A",
"3+	c #B3AE9B",
"4+	c #CCC7B4",
"5+	c #CBC6B3",
"6+	c #878173",
"7+	c #BEB8AC",
"8+	c #C3C0AD",
"9+	c #BBB2A1",
"0+	c #B0A997",
"a+	c #A29D8F",
"b+	c #000000",
"c+	c #A5A092",
"d+	c #C0BAAB",
"e+	c #080706",
"f+	c #615D55",
"g+	c #C6C0B4",
"h+	c #C6C3B0",
"i+	c #C5C2AF",
"j+	c #C2B9A8",
"k+	c #858074",
"l+	c #2A2823",
"m+	c #BCB6A7",
"n+	c #22201D",
"o+	c #848075",
"p+	c #9F9A8C",
"q+	c #171613",
"r+	c #B8B2A6",
"s+	c #C2BCB0",
"t+	c #CBC8B5",
"u+	c #C8C5B2",
"v+	c #C1B8A7",
"w+	c #4F4C44",
"x+	c #6D695E",
"y+	c #6B685E",
"z+	c #57554C",
"A+	c #7E7A6F",
"B+	c #A29D91",
"C+	c #C7C1B3",
"D+	c #B5AFA0",
"E+	c #989486",
"F+	c #918D7F",
"G+	c #B9B4A2",
"H+	c #4F4C45",
"I+	c #858177",
"J+	c #C3BDAF",
"K+	c #999588",
"L+	c #B0AC9A",
"M+	c #A9A593",
"N+	c #A09C8C",
"O+	c #C2BCAD",
"P+	c #57544D",
"Q+	c #79766B",
"R+	c #383630",
"S+	c #302F29",
"T+	c #7C786C",
"U+	c #A19C8F",
"V+	c #070705",
"W+	c #42403B",
"X+	c #737064",
"Y+	c #706D61",
"Z+	c #46433C",
"`+	c #777368",
" @	c #9B9689",
".@	c #B0AB9E",
"+@	c #969282",
"@@	c #959182",
"#@	c #BBB7A5",
"$@	c #423F39",
"%@	c #13120F",
"&@	c #9E998D",
"*@	c #79756B",
"=@	c #949086",
"-@	c #AEA997",
";@	c #AEAA98",
">@	c #9E9A8A",
",@	c #B5B09E",
"'@	c #4A473F",
")@	c #1E1D18",
"!@	c #49473F",
"~@	c #C5BFB3",
"{@	c #726E67",
"]@	c #44423A",
"^@	c #3F3D36",
"/@	c #777468",
"(@	c #959181",
"_@	c #6B675C",
":@	c #CEC8BA",
"<@	c #676459",
"[@	c #C2BDAC",
"}@	c #A8A390",
"|@	c #BBB5A9",
"1@	c #35332F",
"2@	c #7B776B",
"3@	c #747068",
"4@	c #393732",
"5@	c #666259",
"6@	c #8B8679",
"7@	c #908C81",
"8@	c #928E82",
"9@	c #B9B3A7",
"0@	c #B6AFA5",
"a@	c #A7A097",
"b@	c #979286",
"c@	c #B4AE9E",
"d@	c #9B9585",
"e@	c #948E7E",
"f@	c #7A756A",
"g@	c #878275",
"h@	c #999385",
"i@	c #9A9486",
"j@	c #928C7E",
"k@	c #9E988A",
"l@	c #9B9588",
"m@	c #292722",
"n@	c #25231F",
"o@	c #8D887B",
"p@	c #5B584F",
"q@	c #938D7F",
"r@	c #999387",
"s@	c #9A9488",
"t@	c #77716A",
"u@	c #898376",
"v@	c #969080",
"w@	c #8F8979",
"x@	c #979181",
"y@	c #999383",
"z@	c #B8B2A5",
"A@	c #989489",
"B@	c #CBC5B7",
"C@	c #ABA699",
"D@	c #6C6860",
"E@	c #2F2D29",
"F@	c #3A3833",
"G@	c #6C6861",
"H@	c #514E48",
"I@	c #A09A8C",
"J@	c #CAC4B4",
"K@	c #494641",
"L@	c #716D64",
"M@	c #918C80",
"N@	c #938E81",
"O@	c #726E65",
"P@	c #262522",
"Q@	c #7F7B72",
"R@	c #807C71",
"S@	c #2C2A26",
"T@	c #6D6960",
"U@	c #989487",
"V@	c #918C7F",
"W@	c #ACA69A",
"X@	c #9E998F",
"Y@	c #888274",
"Z@	c #A5A093",
"`@	c #ADA89A",
" #	c #282722",
".#	c #3C3A34",
"+#	c #68655B",
"@#	c #8D887E",
"##	c #0D0D0B",
"$#	c #B7B1A5",
"%#	c #B8B39F",
"&#	c #B8B3A1",
"*#	c #8D897B",
"=#	c #A29E8D",
"-#	c #747165",
";#	c #3C3A33",
">#	c #2A2924",
",#	c #625F57",
"'#	c #5B5852",
")#	c #656258",
"!#	c #898577",
"~#	c #949080",
"{#	c #706D60",
"]#	c #A9A594",
"^#	c #161512",
"/#	c #8A857D",
"(#	c #AFA99B",
"_#	c #948E80",
":#	c #878377",
"<#	c #181714",
"[#	c #615E55",
"}#	c #B1AC9A",
"|#	c #979383",
"1#	c #807C6E",
"2#	c #A19C8E",
"3#	c #A8A493",
"4#	c #8F8A77",
"5#	c #C7BFAC",
"6#	c #C2BBA8",
"7#	c #A7A294",
"8#	c #A8A395",
"9#	c #191815",
"0#	c #4C4A42",
"a#	c #656257",
"b#	c #1D1B18",
"c#	c #8E8976",
"d#	c #C5BDAA",
"e#	c #0E0E0B",
"f#	c #888378",
"g#	c #A9A496",
"h#	c #7A776A",
"i#	c #4B4941",
"j#	c #1A1916",
"k#	c #B8B2A3",
"l#	c #514E46",
"m#	c #615F54",
"n#	c #8D8875",
"o#	c #B7B09E",
"p#	c #C2BAA7",
"q#	c #C0B9A6",
"r#	c #4E4C44",
"s#	c #58554D",
"t#	c #89857A",
"u#	c #9A9585",
"v#	c #7F7C6F",
"w#	c #A09B8D",
"x#	c #B9B3A4",
"y#	c #060605",
"z#	c #8B8779",
"A#	c #C1B9A6",
"B#	c #737165",
"C#	c #070605",
"D#	c #B7B1A2",
"E#	c #5C5951",
"F#	c #9F9B8B",
"G#	c #AAA695",
"H#	c #908B78",
"I#	c #C3BCA9",
"J#	c #8E8B7D",
"K#	c #9C9789",
"L#	c #BAB5A5",
"M#	c #070706",
"N#	c #5F5D53",
"O#	c #BBB6A4",
"P#	c #5B5850",
"Q#	c #7F7B70",
"R#	c #2A2824",
"S#	c #C4BCA9",
"T#	c #A19E8E",
"U#	c #1B1A17",
"V#	c #7A766B",
"W#	c #8A8679",
"X#	c #58554C",
"Y#	c #B4AE9F",
"Z#	c #4C4942",
"`#	c #8C8774",
" $	c #A19E8D",
".$	c #56544C",
"+$	c #48463F",
"@$	c #908D7F",
"#$	c #8F8B7E",
"$$	c #928D81",
"%$	c #8A8572",
"&$	c #B3AD9D",
"*$	c #7A7569",
"=$	c #35332C",
"-$	c #1D1C19",
";$	c #C7C2B2",
">$	c #A6A291",
",$	c #393730",
"'$	c #B5B19E",
")$	c #98937F",
"!$	c #C1BCA8",
"~$	c #B3AE9A",
"{$	c #959082",
"]$	c #635F56",
"^$	c #171612",
"/$	c #34322C",
"($	c #2F2D28",
"_$	c #888478",
":$	c #5F5C52",
"<$	c #6E6A60",
"[$	c #878171",
"}$	c #B0AA9A",
"|$	c #9F9989",
"1$	c #68645C",
"2$	c #A09B8C",
"3$	c #A9A393",
"4$	c #8E897E",
"5$	c #868072",
"6$	c #A5A08D",
"7$	c #ADA895",
"8$	c #777267",
"9$	c #272520",
"0$	c #847E6E",
"a$	c #A29D8A",
"b$	c #A09B88",
"c$	c #9F9A87",
"d$	c #8C8776",
"e$	c #958F82",
"f$	c #A29C8E",
"g$	c #8B8577",
"h$	c #A39E8B",
"i$	c #6F6B62",
"j$	c #272621",
"k$	c #46433D",
"l$	c #38362F",
"m$	c #928D80",
"n$	c #8A8474",
"o$	c #6A675C",
"p$	c #797669",
"q$	c #726F62",
"r$	c #AFAA9B",
"s$	c #918D7E",
"t$	c #979382",
"u$	c #B0AB97",
"v$	c #CCC7B3",
"w$	c #B6B19D",
"x$	c #C6C1AD",
"y$	c #B7B29E",
"z$	c #CFC8B6",
"A$	c #B6AF9D",
"B$	c #CAC3B1",
"  . + @ # $ % & * = - ; > , - $ ' ) ! ~ { ' ] ^ ] / ] ( _ ] : < [ } | 1 2 3 4 5 : _ 6 ~ 7 ( _ 8 9 0 ",
"a b c d - e f g - - h i > > ; j 8 / k l : k m ( ] ] ] l n o p q | r s t | s u 3 l n n _ v _ ~ : e , ",
"w x y z A = B C i h - h D ; i D e D E F i * i , = i G H e I i j < 6 l J K k o : F j D i L F M M ] q ",
"N O P Q M D R S T # i i , # , i I U V V D V = # ; W F A ; > j X 6 _ k ' k k o m D j j I Y > h j 2 s ",
"Z `  ...* h +.@.= * $ = e - F $ > I ; $ - e #.i h I = V > j = $.# e V # h G D j D = V D %.> h - &.m ",
"*.. =.-.D j ;.& * $ = - ; , i h >.,.'.).,.!.~.{.0 ].{.^./.(._.!.U j = T i M i i ].).:.9 <.].^.9 h # ",
"[.}.|.1.2.3.4.5.6.7.7.8.2.9.2.0.a.b.c.d.e.f.g.h.i.i.f.j.k.l.'.e.m.2.7.0.n.o.p.6.q.r.s.d.t.s.s.k.u.v.",
"w.}.x.y.z.3.;.A.B.m.C.C.m.m.C.8.g.D.k.q.f.E.F.k.G.G.H.f.j.g.E.s.r.I.g.q.b.H.<.f.f.E.G.e.J.b.q.r.K.K.",
"F # , = = ; ; * ~ 6 K 6 ( 8 8 J _ ( L.j V (.M.~.> $.; _.,.N.O.P.Q.R.n &.S.T. .U.Q V.W.X. .Y.c 1. .Z.",
"* j D e e D j * : ~ &.8 ] 8 _ 8 6 8 j F * _.`._.M ; - _.{. +.+++@+#+p k d T...$+Z.Z.%+Q Z.%+1.&+ .W.",
"* = e h h - e F < ] ] k : m *+: =+8 h # T ^.-+9 $ ; ; ^.).P.;+++>+@+n ' z z ,+'+y d W.)+!+Z.&+!+!+y ",
"j = F j j = * - : ~+J {+l m ]+K m ~+= j , ^.^+(.h i > /+h.P.;+O.R.(+m k  .!+W._+S. .V.z P d z Y.Z.W.",
"I j e D j * * j m :+~+{+J < ( 8 < < j F e ^.<+(.* G e [+h.++}+O.|+(+k k d  . .1+-.!+2+T.S.%+W.Y. .!+",
"U , D i j = = j 3+K 4+' J 5+_ q : ~ > F = ).6+>.- G F h.,.7+O.P.Q.8+' _ !+ .y 9+-.W.0+V.S.d d d W.!+",
"a+b+b+b+b+b+c+F {+6 < 6 6 K _ q 8 < - d+e+b+b+b+b+b+f+].{.O. +g+h+i+q 6 d d ,+j+k+b+b+b+b+l+!+)+!+ .",
"m+n+b+b+b+b+o+$ : _ 8 k q J ~ : o J j p+b+b+b+b+b+b+q+].(.O.r+s+t+u+6 ] ..d y v+w+b+b+b+b+x+y Z.T. .",
"o y+b+b+b+b+z+m l p 8 / _ ~ / 6 ] 8 = A+b+b+b+b+b+b+b+B+].>.C+>.* e e $ * h D D+b+b+b+b+b+E+4+m J m ",
"n F+b+b+b+b+b+G+m {+8 5+6 ~ &.' ' ~ M H+b+b+b+b+b+b+b+I+/+[+J+:.# i = G $ j i K+b+b+b+b+b+L+: p ~ 6 ",
"l M+b+b+b+b+b+N+6 p ] / k l : ' ' ] O+b+b+b+b+b+b+b+b+P+!.[+J+~.X ; = V e ; D Q+b+b+b+b+R+_ J ( : ~ ",
"K ( S+b+b+b+b+T+l q J < l k ] k m ~ U+b+b+b+b+b+b+b+b+V+U j = j ^.>.9 {.,./.^.W+b+b+b+b+X+6 K ~ : J ",
"< ( Y+b+b+b+b+Z+: k ~ 8 l m ] K m q `+b+b+b+b+P+b+b+b+b+ @D e D C+(.J+^.0 )..@b+b+b+b+b++@' < K k 6 ",
"8 n @@b+b+b+b+b+#@] l ~ l m J / : m $@b+b+b+%@&@b+b+b+b+*@T D i P.g+g+P..+.+=@b+b+b+b+b+-@( ] 8 m 6 ",
"l _ ;@b+b+b+b+b+>@] k l J 6 k / K ,@b+b+b+b+'@).)@b+b+b+!@k 6 o 7+P.;+~@.+.+{@b+b+b+b+]@6 ( J ~ ~ J ",
"6 6 ' ^@b+b+b+b+/@] m l 8 _ _ ~+' (@b+b+b+b+_@:@<@b+b+b+b+[@~ }@|@.+g+}+ +++1@b+b+b+b+2@~ 6 : J l ] ",
", T {.3@b+b+b+b+4@d.a./.e.'.^.^.^.5@b+b+b+b+6@'.7@b+b+b+b+8@h./+/+d.}+9@0@a@b+b+b+b+b+b@{.U 3.* L.c@",
"d@e@<.f@b+b+b+b+b+g@h@i@j@^+h@k@l@m@b+b+b+n@<+D.o@b+b+b+b+p@i@<.q@^+I.r@s@t@b+b+b+b+b+u@<+v@w@x@y@y@",
"h D = z@b+b+b+b+b+A@_.(.9 ,.).B@C@b+b+b+b+D@9 ].J+E@b+b+b+F@9 (.]./+0 7+}+G@b+b+b+b+H@h.I@V h I M $ ",
"=+m J@= K@b+b+b+b+L@* h F , T F M@b+b+b+b+N@V i V O@b+b+b+b+l.#.e ; 0 ^.}+P@b+b+b+b+Q@,.M.F - X J@G ",
"q J 5+= R@b+b+b+b+S@h i = j X ; T@b+b+b+b+!.j - $ U@b+b+b+b+V@V V - , {.W@b+b+b+b+b+X@9 Y@D j i h h ",
"3 ~ J m Z@b+b+b+b+b+`@- $ * D #  #b+b+b+.#J@T e $ !.b+b+b+b++#e : ~ I h @#b+b+b+b+##$#~.M.D - F , i ",
"} %#( p &#b+b+b+b+b+*#~ 6 k l =#b+b+b+b+-#~+q : / 4+;#b+b+b+>#J K : n F ,#b+b+b+b+'#$#!.M.D i , F = ",
"t s | l l H+b+b+b+b+)#: q m : !#b+b+b+b+~#l q ~ K < {#b+b+b+b+]#8 8 {+; ^#b+b+b+b+/#9@(#_#* e I e e ",
"*.. T.P * :#b+b+b+b+<#j ; e V [#b+b+b+b+}#] q 6 ~ k |#b+b+b+b+1##.* U 2#b+b+b+b+b+3#J n 4#:+J ' Q d ",
"5#6#z P = 7#b+b+b+b+b+8#j = O+9#b+b+b+0#6 K J l q J G+b+b+b+b+a#$ G , R@b+b+b+b+b#k : 6 c#< k l  .d ",
"d#6#z W.h i e#b+b+b+b+f#e $ g#b+b+b+b+h#k 8 : q _ &.5+i#b+b+b+j#k#M D l#b+b+b+b+m#~ K J n#l ' : Q o#",
"p#q#)+ ., i r#b+b+b+b+s#- $ t#b+b+b+b+u#l k K ( q 8 < v#b+b+b+b+w#$ x#y#b+b+b+b+z#k : ] c#m n K P %+",
"A#q#z  .# i B#b+b+b+b+C#D#= E#b+b+b+e+3+m 6 < m ]+q l F#b+b+b+b+:#$ a+b+b+b+b+b+G#k J ~ H#l n ] z !+",
"w I#!+P D h J#b+b+b+b+b+K#L#M#b+b+b+N#m ' q l _ o _ ] O#C#b+b+b+P#- Q#b+b+b+b+R#k l ~ m 4#8 q m P ,+",
"S#I# ...e e T#U#b+b+b+b+V#p+b+b+b+b+W#: 6 l ' ' l l 8 &.X#b+b+b+C#Y#Z#b+b+b+b+y+m J ] ' `#: _ _ z )+",
"w 6#!+..F e  $.$b+b+b+b++$A+b+b+b+b+=#~+] 4+J 8 : ' 6 4+@$b+b+b+b+#$b+b+b+b+b+$$' 8 K ' %$: 6 ' S.W.",
"#.&$$ D > $ 3.*$b+b+b+b+b+=$b+b+b+-$;$= , F E h ~+8 l k >$b+b+b+b+,$b+b+b+b+b+'$2 %#s | )$!$| ~$~ k ",
"G X V h D = 6.{$b+b+b+b+b+b+b+b+b+]$M $ e J@G j _ m J ] m ^$b+b+b+b+b+b+b+b+/$~ ~ 6 _ < H#: : m q ' ",
"e I e i - D 2.7.($b+b+b+b+b+b+b+b+_$j j j G j j =+_ ] ] k :$b+b+b+b+b+b+b+b+<$h > h # $ [$F h - ] < ",
"> L.L.}$, X |$7.1$b+b+b+b+b+b+b+b+2$W 3.$.> 3$; ^ =+( =+*+1#b+b+b+b+b+b+b+b+4$h.c.a.!.h.5$a./+d.6$7$",
"3$p.L L 3$0.x@B.8$b+b+b+b+b+b+b+9$C.9.z.d@B.0$6.a$a$b$c$c$d$b+b+b+b+b+b+b+b+e$f$E.E.j.g.g$r.q.k@7 h$",
"V F # > e * e F q.b+b+b+b+b+b+b+i$$ * * h h %.F ~ l l ] K ] j$b+b+b+b+b+b+k$, h - , J@F i J@E - p k ",
"e = - i > j M h ' l$b+b+b+b+b+b+m$F - * * = n$F ~ l ~ : &.< o$b+b+b+b+b+b+p${+8 l n J &.m / ] 8 ' ~ ",
"i = M e W # J@i t q$b+b+b+b+b+b+r$e , j * M n$M k 6 _ 6 k l s$b+b+b+b+b+b+t$u$2 t r 4 v$w$x$y$| m ] ",
" .,+)+S.)+T.!+P  .)+S.W.%+T.%+z l _ K 6 ~ J 4#6 ..%+d 2+V.z$y T.d y y V.o#y @ d d P V.W.)+Z.X.,+W.%+",
"d S.T.,+T.T.!+y W.z S.W.%+V.%+)+k _ K 6 ~ J 4#6 W.%+y A$X.B$P !+d %+W.=.c %+-. .V.%+!+S.z V.A$S. .W."};
