/* XPM */
static char * 2_wall_xpm[] = {
"50 50 354 2",
"  	c #CEC6B3",
". 	c #C1BAA7",
"+ 	c #AAA391",
"@ 	c #CEC7B5",
"# 	c #BAB4A4",
"$ 	c #C6C0B0",
"% 	c #9A9786",
"& 	c #B0AD9E",
"* 	c #C5BFAF",
"= 	c #C4BEAE",
"- 	c #C1BBAB",
"; 	c #BCB6A6",
"> 	c #B9B3A3",
", 	c #BBB5A5",
"' 	c #BBB6A3",
") 	c #CEC9B6",
"! 	c #AFAA97",
"~ 	c #C1BCA9",
"{ 	c #D0CBB8",
"] 	c #C3BEAB",
"^ 	c #B2AD9A",
"/ 	c #CAC5B2",
"( 	c #B8B3A0",
"_ 	c #BCB7A4",
": 	c #C5C0AD",
"< 	c #C7C2AF",
"[ 	c #C5C0AC",
"} 	c #C0BBA7",
"| 	c #C3BEAA",
"1 	c #C2BDA9",
"2 	c #C7C2AE",
"3 	c #C4BFAB",
"4 	c #BBB6A2",
"5 	c #C9C4B0",
"6 	c #BDB8A5",
"7 	c #9A9582",
"8 	c #C4BFAC",
"9 	c #C2BCAE",
"0 	c #BDB7A9",
"a 	c #C0B8A5",
"b 	c #B8B19E",
"c 	c #B4AD9B",
"d 	c #C2BBA9",
"e 	c #C2BCAC",
"f 	c #9F9C8B",
"g 	c #A5A293",
"h 	c #C0BAAA",
"i 	c #BDB7A7",
"j 	c #BFB9A9",
"k 	c #BFBAA7",
"l 	c #C0BBA8",
"m 	c #BEB9A6",
"n 	c #B9B4A1",
"o 	c #B4AF9C",
"p 	c #B7B29F",
"q 	c #BAB5A2",
"r 	c #BAB5A1",
"s 	c #BDB8A4",
"t 	c #BFBAA6",
"u 	c #B2AD99",
"v 	c #989380",
"w 	c #C3BBA8",
"x 	c #BCB5A2",
"y 	c #C6BFAD",
"z 	c #BEB7A5",
"A 	c #CEC8B8",
"B 	c #B0AD9C",
"C 	c #A9A697",
"D 	c #BEB8A8",
"E 	c #CBC5B5",
"F 	c #C3BDAD",
"G 	c #C9C3B3",
"H 	c #D2CCBC",
"I 	c #B8B2A2",
"J 	c #C2BDAA",
"K 	c #C6C1AE",
"L 	c #9A9484",
"M 	c #C8C2B2",
"N 	c #C9C1AE",
"O 	c #BFB8A5",
"P 	c #C5BEAC",
"Q 	c #BAB3A1",
"R 	c #AEAB9A",
"S 	c #ADAA9B",
"T 	c #B7B1A1",
"U 	c #B5AF9F",
"V 	c #C7C1B1",
"W 	c #B2AC9C",
"X 	c #B6B0A0",
"Y 	c #908A7A",
"Z 	c #D1C9B6",
"` 	c #C5BEAB",
" .	c #C1BAA8",
"..	c #C7C0AE",
"+.	c #A8A594",
"@.	c #B4B1A2",
"#.	c #CCC6B6",
"$.	c #AFA999",
"%.	c #928C7C",
"&.	c #C8C3B0",
"*.	c #C6BEAB",
"=.	c #B9B2A0",
"-.	c #CCC5B3",
";.	c #9E9B8A",
">.	c #C1BBAD",
",.	c #BCB6A8",
"'.	c #B4AEA0",
").	c #BEB8AA",
"!.	c #B6B0A2",
"~.	c #C4BEB0",
"{.	c #C0BAAC",
"].	c #BAB4A6",
"^.	c #BFB9AB",
"/.	c #BBB5A7",
"(.	c #C6C0B2",
"_.	c #C9C3B5",
":.	c #C5BFB1",
"<.	c #989284",
"[.	c #AAA28F",
"}.	c #ABA491",
"|.	c #A59E8C",
"1.	c #B1AA98",
"2.	c #A59F8F",
"3.	c #AEA898",
"4.	c #928F7E",
"5.	c #A09D8E",
"6.	c #AAA494",
"7.	c #ABA595",
"8.	c #A8A292",
"9.	c #A39D8D",
"0.	c #A7A191",
"a.	c #B7B1A3",
"b.	c #ADA799",
"c.	c #B0AA9C",
"d.	c #B2AC9E",
"e.	c #B1AB9D",
"f.	c #A9A395",
"g.	c #A39D8F",
"h.	c #B9B3A5",
"i.	c #A7A193",
"j.	c #ABA597",
"k.	c #AEA89A",
"l.	c #B3AD9F",
"m.	c #A49E8E",
"n.	c #ACA696",
"o.	c #ADA797",
"p.	c #A29C8C",
"q.	c #A8A294",
"r.	c #A6A092",
"s.	c #ACA698",
"t.	c #8D8779",
"u.	c #B2ACA0",
"v.	c #B0AA9E",
"w.	c #A69E8B",
"x.	c #A7A08E",
"y.	c #A29B89",
"z.	c #9E9888",
"A.	c #A6A394",
"B.	c #A19B8B",
"C.	c #A6A090",
"D.	c #958F81",
"E.	c #A19B8D",
"F.	c #847E70",
"G.	c #A59F91",
"H.	c #A49E90",
"I.	c #9D9789",
"J.	c #918B7D",
"K.	c #A7A096",
"L.	c #B1AB9B",
"M.	c #8E887A",
"N.	c #B5AFA3",
"O.	c #BFB9AD",
"P.	c #C4BEB2",
"Q.	c #BFBCA9",
"R.	c #BCB9A6",
"S.	c #C9C2B0",
"T.	c #BCB5A3",
"U.	c #C5BCAB",
"V.	c #BBB4A2",
"W.	c #C3BCAA",
"X.	c #B8B19F",
"Y.	c #CBC4B2",
"Z.	c #BFB8A6",
"`.	c #969082",
" +	c #BDB7AB",
".+	c #C3BDB1",
"++	c #C0BAAE",
"@+	c #C2BFAC",
"#+	c #BEBBA8",
"$+	c #CCC3B2",
"%+	c #C4BDAB",
"&+	c #B5AE9C",
"*+	c #B1AC99",
"=+	c #B5B09D",
"-+	c #8F897B",
";+	c #C7C1B5",
">+	c #C1BEAB",
",+	c #C8C1AF",
"'+	c #C7BEAD",
")+	c #BDB6A4",
"!+	c #C0B9A7",
"~+	c #C9C4B1",
"{+	c #B6B19E",
"]+	c #B0AB98",
"^+	c #908A7C",
"/+	c #B5AFA1",
"(+	c #C4C1AE",
"_+	c #B8AF9E",
":+	c #CDC8B5",
"<+	c #8C8678",
"[+	c #B8B2A4",
"}+	c #C1BBAF",
"|+	c #BAB7A4",
"1+	c #B2A998",
"2+	c #B3AC9A",
"3+	c #B3AE9B",
"4+	c #CCC7B4",
"5+	c #CBC6B3",
"6+	c #878173",
"7+	c #BEB8AC",
"8+	c #C3C0AD",
"9+	c #BBB2A1",
"0+	c #B0A997",
"a+	c #C7C1B3",
"b+	c #C6C0B4",
"c+	c #C6C3B0",
"d+	c #C5C2AF",
"e+	c #C2B9A8",
"f+	c #CAC3B1",
"g+	c #B6AF9D",
"h+	c #8A8476",
"i+	c #CAC4B4",
"j+	c #B8B2A6",
"k+	c #C2BCB0",
"l+	c #CBC8B5",
"m+	c #C8C5B2",
"n+	c #C1B8A7",
"o+	c #CDC7B9",
"p+	c #CCC6B8",
"q+	c #948E80",
"r+	c #C3BDAF",
"s+	c #898375",
"t+	c #CFC9BB",
"u+	c #D1CBBD",
"v+	c #B4AE9E",
"w+	c #BAB4A8",
"x+	c #C8C2B4",
"y+	c #C5BFB3",
"z+	c #928C7E",
"A+	c #CEC8BA",
"B+	c #CFCAB7",
"C+	c #A8A390",
"D+	c #BBB5A9",
"E+	c #C9C3B7",
"F+	c #B7B1A5",
"G+	c #AAA498",
"H+	c #A7A195",
"I+	c #C5BEB4",
"J+	c #AFA99B",
"K+	c #9C9688",
"L+	c #B9B3A7",
"M+	c #B6AFA5",
"N+	c #B9B2A8",
"O+	c #A9A298",
"P+	c #ADA69E",
"Q+	c #BCB6AA",
"R+	c #9B9585",
"S+	c #948E7E",
"T+	c #9A9486",
"U+	c #9C968A",
"V+	c #938D81",
"W+	c #827C70",
"X+	c #8F897D",
"Y+	c #999385",
"Z+	c #9E988A",
"`+	c #938D7F",
" @	c #979183",
".@	c #999387",
"+@	c #9A9488",
"@@	c #9F988E",
"#@	c #928B81",
"$@	c #958E84",
"%@	c #979185",
"&@	c #969080",
"*@	c #8F8979",
"=@	c #979181",
"-@	c #999383",
";@	c #A8A296",
">@	c #CBC5B7",
",@	c #BCB5AB",
"'@	c #BEB7AD",
")@	c #A09A8C",
"!@	c #A49E92",
"~@	c #A29C90",
"{@	c #AAA496",
"]@	c #888274",
"^@	c #B8B39F",
"/@	c #A29F8E",
"(@	c #A19E8F",
"_@	c #8F8A77",
":@	c #C7BFAC",
"<@	c #C2BBA8",
"[@	c #A4A190",
"}@	c #8E8976",
"|@	c #C5BDAA",
"1@	c #A5A291",
"2@	c #AAA798",
"3@	c #8D8875",
"4@	c #B7B09E",
"5@	c #C2BAA7",
"6@	c #C0B9A6",
"7@	c #A3A08F",
"8@	c #ABA899",
"9@	c #C1B9A6",
"0@	c #ACA99A",
"a@	c #908B78",
"b@	c #C3BCA9",
"c@	c #C4BCA9",
"d@	c #A8A596",
"e@	c #8C8774",
"f@	c #A19E8D",
"g@	c #A4A192",
"h@	c #8A8572",
"i@	c #B3AD9D",
"j@	c #BCB7A3",
"k@	c #C1BCA8",
"l@	c #BEB9A5",
"m@	c #B9B4A0",
"n@	c #98937F",
"o@	c #B3AE9A",
"p@	c #878171",
"q@	c #B0AA9A",
"r@	c #9F9989",
"s@	c #A9A393",
"t@	c #868072",
"u@	c #A5A08D",
"v@	c #ADA895",
"w@	c #A29C8E",
"x@	c #847E6E",
"y@	c #A29D8A",
"z@	c #A09B88",
"A@	c #9F9A87",
"B@	c #A19C89",
"C@	c #8B8577",
"D@	c #A39E8B",
"E@	c #CFC9B9",
"F@	c #8A8474",
"G@	c #B7B29E",
"H@	c #CBC6B2",
"I@	c #B0AB97",
"J@	c #CCC7B3",
"K@	c #B6B19D",
"L@	c #C6C1AD",
"M@	c #CFC8B6",
"  . + @ # $ % & * = - ; > , - $ ' ) ! ~ { ' ] ^ ] / ] ( _ ] : < [ } | 1 2 3 4 5 : _ 6 ~ 7 ( _ 8 9 0 ",
"a b c d - e f g - - h i > > ; j 8 / k l : k m ( ] ] ] l n o p q | r s t | s u 3 l n n _ v _ ~ : e , ",
"w x y z A = B C i h - h D ; i D e D E F i * i , = i G H e I i j < 6 l J K k o : F j D i L F M M ] q ",
"N O P Q M D R S T # i i , # , i I U V V D V = # ; W F A ; > j X 6 _ k ' k k o m D j j I Y > h j 2 s ",
"Z `  ...* h +.@.= * $ = e - F $ > I ; $ - e #.i h I = V > j = $.# e V # h G D j D = V D %.> h - &.m ",
"*.. =.-.D j ;.& * $ = - ; , i h >.,.'.).,.!.~.{.0 ].{.^./.(._.!.U j = T i M i i ].).:.9 <.].^.9 h # ",
"[.}.|.1.2.3.4.5.6.7.7.8.2.9.2.0.a.b.c.d.e.f.g.h.i.i.f.j.k.l.'.e.m.2.7.0.n.o.p.6.q.r.s.d.t.s.s.k.u.v.",
"w.}.x.y.z.3.;.A.B.m.C.C.m.m.C.8.g.D.k.q.f.E.F.k.G.G.H.f.j.g.E.s.r.I.g.q.b.H.<.f.f.E.G.e.J.b.q.r.K.K.",
"F # , = = ; ; * ~ 6 K 6 ( 8 8 J _ ( L.j V (.M.~.> $.; _.,.N.O.P.Q.R.n &.S.T. .U.Q V.W.X. .Y.c 1. .Z.",
"* j D e e D j * : ~ &.8 ] 8 _ 8 6 8 j F * _.`._.M ; - _.{. +.+++@+#+p k d T...$+Z.Z.%+Q Z.%+1.&+ .W.",
"* = e h h - e F < ] ] k : m *+: =+8 h # T ^.-+9 $ ; ; ^.).P.;+++>+@+n ' z z ,+'+y d W.)+!+Z.&+!+!+y ",
"j = F j j = * - : ~+J {+l m ]+K m ~+= j , ^.^+(.h i > /+h.P.;+O.R.(+m k  .!+W._+S. .V.z P d z Y.Z.W.",
"I j e D j * * j m :+~+{+J < ( 8 < < j F e ^.<+(.* G e [+h.++}+O.|+(+k k d  . .1+-.!+2+T.S.%+W.Y. .!+",
"U , D i j = = j 3+K 4+' J 5+_ q : ~ > F = ).6+>.- G F h.,.7+O.P.Q.8+' _ !+ .y 9+-.W.0+V.S.d d d W.!+",
"# , , ; i h e F {+6 < 6 6 K _ q 8 < - V G a+-+9 ; * j ].{.O. +b+c+d+q 6 d d ,+e+f+S.g+Z.f+ .d )+!+ .",
"j ; # , ; i - $ : _ 8 k q J ~ : o J j D D 9 h+!.* i+e ).(.O.j+k+l+m+6 ] ..d y n+y @ )+%+-.d y Z.T. .",
"o < ~+: ! 8 : m l p 8 / _ ~ / 6 ] 8 = i ; o+J.h.{.0 ^.).].>.a+>.* e e $ * h D h {+l q m 8 &.4+m J m ",
"n ] K ~ 3+l K ~ m {+8 5+6 ~ &.' ' ~ M - i p+q+9 ].).:.>./+[+r+:.# i = G $ j i j {+~ 6 k ~ J : p ~ 6 ",
"l 6 ] 6 q ' K ] 6 p ] / k l : ' ' ] #.* ; (.M.)./.^.a+9 !.[+r+~.X ; = V e ; D F p ] l ~ l 6 J ( : ~ ",
"K n J 6 J p ] k l q J < l k ] k m ~ V F i (.s+/+- - * F ; j = j ^.>.9 {.,./.^.:.q K J ] l 6 K ~ : J ",
"< ( J ~ K {+m ' : k ~ 8 l m ] K m q ; D e t+-+a.D h M $ ; D e D a+(.r+^.0 ).^.{.k &.J J m ' < K k 6 ",
"8 n ~ : ] ( ' n &.] l ~ l m J / : m i j = u+J.].v+i E G # T D i P.b+b+P..+.+O.w+J &.l k ' ( ] 8 m 6 ",
"l _ m < _ _ _ 6 < ] k l J 6 k / K ] = e D x+-+>.{+n ] K l k 6 o 7+P.;+y+.+.+k+7+k ] _ k 6 ( J ~ ~ J ",
"6 6 ' < {+k 6 ~ : ] m l 8 _ _ ~+' m $ e > 9 z+A+l {+p ~ / B+~ C+D+.+b+}+ +}+b+E+n m q l ~ 6 : J l ] ",
", T {.).F+G+H+I+).d.a./.e.'.^.^.^.s.a+J+d.9 K+'.9 !.'.[+a.[+h./+/+d.}+L+M+N+O+P+++Q+++h.{.U 3.* L.v+",
"R+S+<.T+U+V+W+X+<.D.Y+T+z+^+Y+Z+K+<.K+q+T+K+t.D.Z+q+`+`.D. @T+<.`+^+I..@+@@@#@$@%@.@.@^+<+&@*@=@-@-@",
"h D = ~.x+++;@H+>.x+_.(.9 ,.).>@0 a+'.,.~./.9 ].~.0 ].,.).^.9 (.]./+0 7+}+y+,@'@7+y+}+h.)@V h I M $ ",
"=+m i+= r+/.!@~@i G * h F , T F h E U ; * D V i V * j D e e = #.e ; 0 ^..+P.O.'@D+}+ +,.M.F - X i+G ",
"q J 5+= * >.{@i.D M e i = j X ; = * h > h $ j - $ * ; > - j i V V - , {.~.}+}+++7+O.Q+9 ]@D j i h h ",
"3 ~ J m G M J+q.F V = - $ * D ; F D G X , i+T e $ $ > X e j I e : ~ I h r+).:.y+P.}+ +~.M.D - F , i ",
"} ^@( p l i 0.2.m m J ~ 6 k l ( k l 5+( ' ~+q : / 4+' n 5+< ' 8 K : n F = ,._.>@}+O.F+!.M.D i , F = ",
"t s | l l T 0.L.m 6 K : q m : _ =+m 8 {+( l q ~ K < =+o ~+: p k 8 8 {+h j '.~.a+.+P.L+J+q+* e I e e ",
"*.. T.P * $ /@(@; - V F ; e V D ] : 6 : ' ] q 6 ~ k _ 6 : ~+k ! #.* U i A ; $.V k ] J n _@:+J ' Q d ",
":@<@z P = * [@g # j $ = j = $ , ' m q m 6 K J l q J 8 m 6 8 K J $ G , # i+= > * 6 J : 6 }@< k l  .d ",
"|@<@z W.h e 1@2@# ; F = e $ * > _ l J n k 8 : q _ &.5+~ _ ] K ~ ; M D v+e V D D ' ~ K J 3@l ' : Q 4@",
"5@6@)+ ., i 7@8@i , h e - $ * # _ 8 4+( l k K ( q 8 < J ] / 8 =+# $ h X h V h , 6 k : ] }@m n K P %+",
"9@6@z  .# i 7@0@e i D h D = $ D 3+l :+n m 6 < m ]+q l l 8 / K _ e $ F - $ V e h l k J ~ a@l n ] z !+",
"w b@!+P D h [@8@V h j j ; - V F =+J 5+m ' q l _ o _ ] J 6 _ l : = - e V V F - - ~ l ~ m _@8 q m P ,+",
"c@b@ ...e e [@d@G e e - , D $ * 6 : : : 6 l ' ' l l 8 &.J ( n ~ D , h * F e e D m J ] ' e@: _ _ z )+",
"w <@!+..F e f@g@G F * = ; i * $ m J _ ~+] 4+J 8 : ' 6 4+{ 8 q ' , i = * e V G j ' 8 K ' h@: 6 ' S.W.",
"#.i@$ D > $ 3.2.} 4 } | j@4 } k@$ - E = , F E h ~+8 l k J K K : l@2 t 3 j@l@m@2 2 ^@s | n@k@| o@~ k ",
"G X V h D = 6.8.: m ~ J q n k l e i M $ e i+G j _ m J ] J ~ ~ J ~ ] q : ~ l =+~ ~ 6 _ < a@: : m q ' ",
"e I e i - D 2.n.= i D j X U , i h > j j j G j j =+_ ] ] k _ k ] e h U $ V * T h > h # $ p@F h - ] < ",
"> L.L.q@, X r@7.!.c.'.a.J+k.'./+, v+W 3.$.> s@; ^ =+( =+*+*+p 6 '.h.J+h./.{.'.h.c.a.!.h.t@a./+d.u@v@",
"s@p.L L s@0.=@B.K+T+w@q.g.E.G.G.8.0.9.z.R+B.x@6.y@y@z@A@A@A@B@y@K+j.w@)@K+q.)@w@E.E.j.g.C@r.q.Z+7 D@",
"V F # > e * e F I T - G = e * = - $ * * h h %.F ~ l l ] K : m n D E@V e T - , h - , i+F i i+E - p k ",
"e = - i > j M h ' ( ~ < ~ k J ~ i F - * * = F@F ~ l ~ : &.< l q J / ] ~+m 6 {+8 l n J &.m / ] 8 ' ~ ",
"i = M e W # i+i t 4 k@[ l@4 l@l@j e , j * M F@M k 6 _ 6 k l l m t s G@H@3 m@I@2 t r 4 J@K@L@G@| m ] ",
" .,+)+S.)+T.!+P  .)+S.W.%+T.%+z l _ K 6 ~ J _@6 ..%+d 2+V.M@y T.d y y V.4@y @ d d P V.W.)+Z.X.,+W.%+",
"d S.T.,+T.T.!+y W.z S.W.%+V.%+)+k _ K 6 ~ J _@6 W.%+y g+X.f+P !+d %+W.=.c %+-. .V.%+!+S.z V.g+S. .W."};
