/* XPM */
static char * north_wall_xpm[] = {
"50 50 478 2",
"  	c #CEC6B3",
". 	c #C1BAA7",
"+ 	c #AAA391",
"@ 	c #CEC7B5",
"# 	c #BAB4A4",
"$ 	c #C6C0B0",
"% 	c #9A9786",
"& 	c #B0AD9E",
"* 	c #C5BFAF",
"= 	c #C4BEAE",
"- 	c #C1BBAB",
"; 	c #BCB6A6",
"> 	c #B9B3A3",
", 	c #BBB5A5",
"' 	c #BBB6A3",
") 	c #CEC9B6",
"! 	c #AFAA97",
"~ 	c #C1BCA9",
"{ 	c #D0CBB8",
"] 	c #C3BEAB",
"^ 	c #B2AD9A",
"/ 	c #CAC5B2",
"( 	c #B8B3A0",
"_ 	c #BCB7A4",
": 	c #C5C0AD",
"< 	c #C7C2AF",
"[ 	c #C5C0AC",
"} 	c #C0BBA7",
"| 	c #C3BEAA",
"1 	c #C2BDA9",
"2 	c #C7C2AE",
"3 	c #C4BFAB",
"4 	c #BBB6A2",
"5 	c #C9C4B0",
"6 	c #BDB8A5",
"7 	c #9A9582",
"8 	c #C4BFAC",
"9 	c #C2BCAE",
"0 	c #BDB7A9",
"a 	c #C0B8A5",
"b 	c #B8B19E",
"c 	c #B4AD9B",
"d 	c #C2BBA9",
"e 	c #C2BCAC",
"f 	c #9F9C8B",
"g 	c #A5A293",
"h 	c #C0BAAA",
"i 	c #BDB7A7",
"j 	c #BFB9A9",
"k 	c #BFBAA7",
"l 	c #C0BBA8",
"m 	c #BEB9A6",
"n 	c #B9B4A1",
"o 	c #B4AF9C",
"p 	c #B7B29F",
"q 	c #BAB5A2",
"r 	c #BAB5A1",
"s 	c #BDB8A4",
"t 	c #BFBAA6",
"u 	c #B2AD99",
"v 	c #989380",
"w 	c #C3BBA8",
"x 	c #BCB5A2",
"y 	c #C6BFAD",
"z 	c #BEB7A5",
"A 	c #CEC8B8",
"B 	c #B0AD9C",
"C 	c #A9A697",
"D 	c #BEB8A8",
"E 	c #CBC5B5",
"F 	c #C3BDAD",
"G 	c #C9C3B3",
"H 	c #D2CCBC",
"I 	c #B8B2A2",
"J 	c #C2BDAA",
"K 	c #C6C1AE",
"L 	c #9A9484",
"M 	c #C8C2B2",
"N 	c #C9C1AE",
"O 	c #BFB8A5",
"P 	c #C5BEAC",
"Q 	c #BAB3A1",
"R 	c #AEAB9A",
"S 	c #ADAA9B",
"T 	c #B7B1A1",
"U 	c #B5AF9F",
"V 	c #C7C1B1",
"W 	c #B2AC9C",
"X 	c #B6B0A0",
"Y 	c #908A7A",
"Z 	c #D1C9B6",
"` 	c #C5BEAB",
" .	c #C1BAA8",
"..	c #C7C0AE",
"+.	c #A8A594",
"@.	c #B4B1A2",
"#.	c #393732",
"$.	c #000000",
"%.	c #7D796E",
"&.	c #CCC6B6",
"*.	c #AFA999",
"=.	c #78746A",
"-.	c #AAA597",
";.	c #928C7C",
">.	c #C8C3B0",
",.	c #C6BEAB",
"'.	c #B9B2A0",
").	c #CCC5B3",
"!.	c #9E9B8A",
"~.	c #1A1916",
"{.	c #B1AB9E",
"].	c #B4AEA0",
"^.	c #BEB8AA",
"/.	c #BCB6A8",
"(.	c #B6B0A2",
"_.	c #C4BEB0",
":.	c #C0BAAC",
"<.	c #BAB4A6",
"[.	c #BFB9AB",
"}.	c #BBB5A7",
"|.	c #C6C0B2",
"1.	c #C9C3B5",
"2.	c #767268",
"3.	c #A8A397",
"4.	c #989284",
"5.	c #AAA28F",
"6.	c #ABA491",
"7.	c #A59E8C",
"8.	c #B1AA98",
"9.	c #A59F8F",
"0.	c #AEA898",
"a.	c #928F7E",
"b.	c #A09D8E",
"c.	c #302E29",
"d.	c #6C685F",
"e.	c #B0AA9C",
"f.	c #B2AC9E",
"g.	c #B1AB9D",
"h.	c #A9A395",
"i.	c #A39D8F",
"j.	c #B9B3A5",
"k.	c #A7A193",
"l.	c #ABA597",
"m.	c #AEA89A",
"n.	c #B3AD9F",
"o.	c #A49E8E",
"p.	c #ABA595",
"q.	c #A7A191",
"r.	c #6B675D",
"s.	c #928D81",
"t.	c #8D8779",
"u.	c #ACA698",
"v.	c #B2ACA0",
"w.	c #B0AA9E",
"x.	c #A69E8B",
"y.	c #A7A08E",
"z.	c #A29B89",
"A.	c #9E9888",
"B.	c #A6A394",
"C.	c #2D2B26",
"D.	c #040403",
"E.	c #9F9A8D",
"F.	c #A8A294",
"G.	c #A19B8D",
"H.	c #847E70",
"I.	c #A59F91",
"J.	c #A49E90",
"K.	c #A6A092",
"L.	c #9D9789",
"M.	c #8C877B",
"N.	c #918B7D",
"O.	c #ADA799",
"P.	c #A7A096",
"Q.	c #383630",
"R.	c #646057",
"S.	c #8E887A",
"T.	c #B5AFA3",
"U.	c #BFB9AD",
"V.	c #C4BEB2",
"W.	c #BFBCA9",
"X.	c #BCB9A6",
"Y.	c #7E796E",
"Z.	c #A6A091",
"`.	c #B8B19F",
" +	c #CBC4B2",
".+	c #BFB8A6",
"++	c #393831",
"@+	c #ACA799",
"#+	c #969082",
"$+	c #BDB7AB",
"%+	c #C3BDB1",
"&+	c #C0BAAE",
"*+	c #C2BFAC",
"=+	c #BEBBA8",
"-+	c #797569",
";+	c #A7A192",
">+	c #C4BDAB",
",+	c #B5AE9C",
"'+	c #C3BCAA",
")+	c #3A3832",
"!+	c #5E5B52",
"~+	c #8F897B",
"{+	c #C7C1B5",
"]+	c #C1BEAB",
"^+	c #777267",
"/+	c #BDB6A4",
"(+	c #C0B9A7",
"_+	c #3D3B33",
":+	c #9F998C",
"<+	c #908A7C",
"[+	c #B5AFA1",
"}+	c #C4C1AE",
"|+	c #797468",
"1+	c #9F998A",
"2+	c #37352F",
"3+	c #928E7F",
"4+	c #56534B",
"5+	c #8C8678",
"6+	c #B8B2A4",
"7+	c #C1BBAF",
"8+	c #BAB7A4",
"9+	c #999283",
"0+	c #BCB5A3",
"a+	c #C9C2B0",
"b+	c #33322B",
"c+	c #504E45",
"d+	c #9A958A",
"e+	c #878173",
"f+	c #C1BBAD",
"g+	c #BEB8AC",
"h+	c #C3C0AD",
"i+	c #787468",
"j+	c #969080",
"k+	c #BBB4A2",
"l+	c #34332C",
"m+	c #9D9988",
"n+	c #4B4842",
"o+	c #8D887A",
"p+	c #C6C0B4",
"q+	c #C6C3B0",
"r+	c #C5C2AF",
"s+	c #9B9586",
"t+	c #CAC3B1",
"u+	c #59564C",
"v+	c #6A655A",
"w+	c #CAC4B4",
"x+	c #B8B2A6",
"y+	c #C2BCB0",
"z+	c #CBC8B5",
"A+	c #C8C5B2",
"B+	c #7D786C",
"C+	c #A19B8C",
"D+	c #C9C4B1",
"E+	c #ACA796",
"F+	c #2A2823",
"G+	c #C7C1B3",
"H+	c #7B776D",
"I+	c #9F9A8A",
"J+	c #CCC7B4",
"K+	c #B3AE9B",
"L+	c #6C695E",
"M+	c #8E897F",
"N+	c #C5BFB1",
"O+	c #C3BDAF",
"P+	c #7C786E",
"Q+	c #A19D8C",
"R+	c #B2AD9C",
"S+	c #080706",
"T+	c #2D2B27",
"U+	c #B4AEA1",
"V+	c #79756B",
"W+	c #A49F8F",
"X+	c #848074",
"Y+	c #757268",
"Z+	c #A5A191",
"`+	c #B6B19E",
" @	c #B0AA9B",
".@	c #1A1815",
"+@	c #1D1B18",
"@@	c #B5AFA0",
"#@	c #767269",
"$@	c #3B3932",
"%@	c #807B70",
"&@	c #787469",
"*@	c #7A766E",
"=@	c #292723",
"-@	c #0C0C09",
";@	c #B3AF9D",
">@	c #C5BFB3",
",@	c #A09C8C",
"'@	c #6A675B",
")@	c #CFCAB7",
"!@	c #A8A390",
"~@	c #BBB5A9",
"{@	c #76726A",
"]@	c #B7B1A5",
"^@	c #AAA498",
"/@	c #A7A195",
"(@	c #C5BEB4",
"_@	c #373530",
":@	c #AFA99B",
"<@	c #ADA79A",
"[@	c #A39E92",
"}@	c #B7B1A3",
"|@	c #B9B3A7",
"1@	c #726D67",
"2@	c #A49F94",
"3@	c #B1AB9B",
"4@	c #B4AE9E",
"5@	c #9B9585",
"6@	c #948E7E",
"7@	c #9A9486",
"8@	c #9C968A",
"9@	c #938D81",
"0@	c #827C70",
"a@	c #8F897D",
"b@	c #9E988A",
"c@	c #9C9688",
"d@	c #948E80",
"e@	c #767166",
"f@	c #4C4841",
"g@	c #958F81",
"h@	c #979183",
"i@	c #938D7F",
"j@	c #999387",
"k@	c #5F5B54",
"l@	c #827D73",
"m@	c #8F8979",
"n@	c #979181",
"o@	c #999383",
"p@	c #C8C2B4",
"q@	c #A8A296",
"r@	c #383631",
"s@	c #CBC5B7",
"t@	c #B8B2A5",
"u@	c #45423D",
"v@	c #A29D91",
"w@	c #79756D",
"x@	c #A59F95",
"y@	c #A09A8C",
"z@	c #B5B09D",
"A@	c #A49E92",
"B@	c #A29C90",
"C@	c #58554D",
"D@	c #A19C92",
"E@	c #CBC6B3",
"F@	c #AAA496",
"G@	c #524F47",
"H@	c #9C978A",
"I@	c #7B776E",
"J@	c #A09B91",
"K@	c #888274",
"L@	c #393731",
"M@	c #A39D90",
"N@	c #494740",
"O@	c #B6B0A1",
"P@	c #7A766D",
"Q@	c #B8B39F",
"R@	c #626056",
"S@	c #7B776C",
"T@	c #9C978C",
"U@	c #ADA998",
"V@	c #393730",
"W@	c #777469",
"X@	c #9E998E",
"Y@	c #A29F8E",
"Z@	c #A19E8F",
"`@	c #36342F",
" #	c #69665B",
".#	c #817D6F",
"+#	c #817D73",
"@#	c #8F8A77",
"##	c #CDC8B5",
"$#	c #C7BFAC",
"%#	c #C2BBA8",
"&#	c #A4A190",
"*#	c #36342E",
"=#	c #B0AB9A",
"-#	c #070705",
";#	c #302F29",
">#	c #BFB9AA",
",#	c #7F7B70",
"'#	c #A8A493",
")#	c #8E8976",
"!#	c #C5BDAA",
"~#	c #A5A291",
"{#	c #AAA798",
"]#	c #7C796D",
"^#	c #827E72",
"/#	c #A9A594",
"(#	c #8D8875",
"_#	c #B7B09E",
":#	c #C2BAA7",
"<#	c #C0B9A6",
"[#	c #A3A08F",
"}#	c #ABA899",
"|#	c #BAB5A3",
"1#	c #171613",
"2#	c #1F1D1A",
"3#	c #BCB6A7",
"4#	c #C1B9A6",
"5#	c #ACA99A",
"6#	c #B0AB98",
"7#	c #7F7B6E",
"8#	c #807C71",
"9#	c #908B78",
"0#	c #C3BCA9",
"a#	c #3A3833",
"b#	c #B9B4A2",
"c#	c #24231E",
"d#	c #12120F",
"e#	c #A5A090",
"f#	c #C8C1AF",
"g#	c #C4BCA9",
"h#	c #A8A596",
"i#	c #3B3933",
"j#	c #898678",
"k#	c #716D64",
"l#	c #7A766C",
"m#	c #A6A292",
"n#	c #8C8774",
"o#	c #A19E8D",
"p#	c #A4A192",
"q#	c #CAC5B3",
"r#	c #B0AB9C",
"s#	c #8A8572",
"t#	c #B3AD9D",
"u#	c #38362F",
"v#	c #C1BCA8",
"w#	c #959183",
"x#	c #676459",
"y#	c #757265",
"z#	c #98937F",
"A#	c #B3AE9A",
"B#	c #AAA494",
"C#	c #A8A292",
"D#	c #424039",
"E#	c #44423B",
"F#	c #ACA696",
"G#	c #979384",
"H#	c #878171",
"I#	c #B0AA9A",
"J#	c #9F9989",
"K#	c #34322E",
"L#	c #A9A393",
"M#	c #B1AC99",
"N#	c #4E4C43",
"O#	c #9B968A",
"P#	c #868072",
"Q#	c #A5A08D",
"R#	c #ADA895",
"S#	c #A29C8C",
"T#	c #A19B8B",
"U#	c #2C2A25",
"V#	c #A39D8D",
"W#	c #847E6E",
"X#	c #A29D8A",
"Y#	c #A09B88",
"Z#	c #9F9A87",
"`#	c #A19C89",
" $	c #868272",
".$	c #928C80",
"+$	c #8B8577",
"@$	c #A39E8B",
"#$	c #35332E",
"$$	c #5A574F",
"%$	c #8A8474",
"&$	c #37362F",
"*$	c #BEB9A5",
"=$	c #666357",
"-$	c #9F9B8A",
";$	c #CCC7B3",
">$	c #B6B19D",
",$	c #C6C1AD",
"'$	c #B7B29E",
")$	c #B3AC9A",
"!$	c #CFC8B6",
"~$	c #B6AF9D",
"  . + @ # $ % & * = - ; > , - $ ' ) ! ~ { ' ] ^ ] / ] ( _ ] : < [ } | 1 2 3 4 5 : _ 6 ~ 7 ( _ 8 9 0 ",
"a b c d - e f g - - h i > > ; j 8 / k l : k m ( ] ] ] l n o p q | r s t | s u 3 l n n _ v _ ~ : e , ",
"w x y z A = B C i h - h D ; i D e D E F i * i , = i G H e I i j < 6 l J K k o : F j D i L F M M ] q ",
"N O P Q M D R S T # i i , # , i I U V V D V = # ; W F A ; > j X 6 _ k ' k k o m D j j I Y > h j 2 s ",
"Z `  ...* h +.@.#.$.$.$.$.$.$.$.%.I ; $ - e &.i h I = V > j = *.# e V # =.$.$.$.$.$.-.D ;.> h - >.m ",
",.. '.).D j !.& #.$.$.$.$.$.$.$.~.{.].^./.(._.:.0 <.:.[.}.|.1.(.U j = T 2.$.$.$.$.$.3.9 4.<.[.9 h # ",
"5.6.7.8.9.0.a.b.c.$.$.$.$.$.$.$.$.d.e.f.g.h.i.j.k.k.h.l.m.n.].g.o.9.p.q.r.$.$.$.$.$.s.f.t.u.u.m.v.w.",
"x.6.y.z.A.0.!.B.C.$.$.$.$.$.$.$.$.D.E.F.h.G.H.m.I.I.J.h.l.i.G.u.K.L.i.F.d.$.$.$.$.$.M.g.N.O.F.K.P.P.",
"F # , = = ; ; * Q.$.$.$.$.$.$.$.$.$.R.j V |.S._.> *.; 1./.T.U.V.W.X.n >.Y.$.$.$.$.$.Z.`. . +c 8. ..+",
"* j D e e D j * ++$.$.$.$.$.$.$.$.$.$.@+* 1.#+1.M ; - 1.:.$+%+&+*+=+p k -+$.$.$.$.$.;+Q .+>+8.,+ .'+",
"* = e h h - e F )+$.$.$.$.$.$.$.$.$.$.!+T [.~+9 $ ; ; [.^.V.{+&+]+*+n ' ^+$.$.$.$.$.Z./+(+.+,+(+(+y ",
"j = F j j = * - ++$.$.$.$.$._+$.$.$.$.$.:+[.<+|.h i > [+j.V.{+U.X.}+m k |+$.$.$.$.$.1+z P d z  +.+'+",
"I j e D j * * j 2+$.$.$.$.$.3+$.$.$.$.$.4+^.5+|.* G e 6+j.&+7+U.8+}+k k -+$.$.$.$.$.9+0+a+>+'+ + .(+",
"U , D i j = = j b+$.$.$.$.$.q c+$.$.$.$.$.d+e+f+- G F j./.g+U.V.W.h+' _ i+$.$.$.$.$.j+k+a+d d d '+(+",
"# , , ; i h e F l+$.$.$.$.$.' m+$.$.$.$.$.n+o+9 ; * j <.:.U.$+p+q+r+q 6 -+$.$.$.$.$.s+.+t+ .d /+(+ .",
"j ; # , ; i - $ ++$.$.$.$.$.l : u+$.$.$.$.$.v+(.* w+e ^.|.U.x+y+z+A+6 ] B+$.$.$.$.$.C+>+).d y .+0+ .",
"o < D+: ! 8 : m Q.$.$.$.$.$.D+6 E+$.$.$.$.$.F+[+:.0 [.^.<.f+G+f+* e e $ H+$.$.$.$.$.I+m 8 >.J+m J m ",
"n ] K ~ K+l K ~ 2+$.$.$.$.$.< ' ' L+$.$.$.$.$.M+<.^.N+f+[+6+O+N+# i = G P+$.$.$.$.$.Q+k ~ J : p ~ 6 ",
"l 6 ] 6 q ' K ] 2+$.$.$.$.$.8 ' ' R+S+$.$.$.$.T+U+[.G+9 (.6+O+_.X ; = V V+$.$.$.$.$.W+~ l 6 J ( : ~ ",
"K n J 6 J p ] k Q.$.$.$.$.$.J k m ~ H+$.$.$.$.$.X+- * F ; j = j [.f+9 :.Y+$.$.$.$.$.Z+] l 6 K ~ : J ",
"< ( J ~ K `+m ' ++$.$.$.$.$.J K m q  @.@$.$.$.$.+@@@M $ ; D e D G+|.O+[.#@$.$.$.$.$.Z+J m ' < K k 6 ",
"8 n ~ : ] ( ' n $@$.$.$.$.$.~ / : m i %@$.$.$.$.$.&@E G # T D i V.p+p+V.*@$.$.$.$.$.W+k ' ( ] 8 m 6 ",
"l _ m < _ _ _ 6 )+$.$.$.$.$.m / K ] = # =@$.$.$.$.-@;@K l k 6 o g+V.{+>@*@$.$.$.$.$.,@k 6 ( J ~ ~ J ",
"6 6 ' < `+k 6 ~ ++$.$.$.$.$.' D+' m $ e X+$.$.$.$.$.'@~ / )@~ !@~@%+p+7+{@$.$.$.$.$.I+l ~ 6 : J l ] ",
", T :.^.]@^@/@(@_@$.$.$.$.$.^.[.[.u.G+:@<@_@$.$.$.$.$.[@}@6+j.[+[+f.7+|@1@$.$.$.$.$.2@j.:.U 0.* 3@4@",
"5@6@4.7@8@9@0@a@F+$.$.$.$.$.4.b@c@4.c@d@7@e@$.$.$.$.$.f@g@h@7@4.i@<+L.j@k@$.$.$.$.$.l@<+5+j+m@n@o@o@",
"h D = _.p@&+q@/@r@$.$.$.$.$.0 s@0 G+]./._.t@u@$.$.$.$.$.v@[.9 |.<.[+0 g+w@$.$.$.$.$.x@j.y@V h I M $ ",
"z@m w+= O+}.A@B@2+$.$.$.$.$.X F h E U ; * D E.$.$.$.$.$.C@- = &.e ; 0 [.*@$.$.$.$.$.D@/.S.F - X w+G ",
"q J E@= * f+F@k._@$.$.$.$.$.U ; = * h > h $ D G@$.$.$.$.$.H@i V V - , :.I@$.$.$.$.$.J@9 K@D j i h h ",
"3 ~ J m G M :@F.L@$.$.$.$.$.i ; F D G X , w+T M@$.$.$.$.$.N@O@e : ~ I h P@$.$.$.$.$.D@_.S.D - F , i ",
"} Q@( p l i q.9.2+$.$.$.$.$.k ( k l E@( ' D+q : R@$.$.$.$.$.3+8 K : n F S@$.$.$.$.$.T@(.S.D i , F = ",
"t s | l l T q.3@2+$.$.$.$.$.8 _ z@m 8 `+( l q ~ U@$.$.$.$.$.V@' 8 8 `+h W@$.$.$.$.$.X@:@d@* e I e e ",
",.. 0+P * $ Y@Z@`@$.$.$.$.$.$ D ] : 6 : ' ] q 6 ~  #$.$.$.$.$..#&.* U i +#$.$.$.$.$.Z+n @###J ' Q d ",
"$#%#z P = * &#g *#$.$.$.$.$.* , ' m q m 6 K J l q =#-#$.$.$.$.;#>#G , # ,#$.$.$.$.$.'#6 )#< k l  .d ",
"!#%#z '+h e ~#{#*#$.$.$.$.$.= > _ l J n k 8 : q _ >.]#$.$.$.$.$.^#M D 4@V+$.$.$.$.$./#J (#l ' : Q _#",
":#<#/+ ., i [#}#2+$.$.$.$.$.= # _ 8 J+( l k K ( q 8 |#1#$.$.$.$.2#3#h X =.$.$.$.$.$.'#] )#m n K P >+",
"4#<#z  .# i [#5#r@$.$.$.$.$.* D K+l ##n m 6 < m 6#q l 7#$.$.$.$.$.8#F - P+$.$.$.$.$.Z+~ 9#l n ] z (+",
"w 0#(+P D h &#}#a#$.$.$.$.$.$ F z@J E@m ' q l _ o _ ] b#c#$.$.$.$.d#n.V %.$.$.$.$.$.e#m @#8 q m P f#",
"g#0# ...e e &#h#i#$.$.$.$.$.* * 6 : : : 6 l ' ' l l 8 >.j#$.$.$.$.$.k#* l#$.$.$.$.$.m#' n#: _ _ z /+",
"w %#(+..F e o#p#i#$.$.$.$.$.= $ m J _ D+] J+J 8 : ' 6 J+q#*#$.$.$.$.$.r#V+$.$.$.$.$./#' s#: 6 ' a+'+",
"&.t#$ D > $ 0.9.u#$.$.$.$.$.t v#$ - E = , F E h D+8 l k J w#$.$.$.$.$.x#y#$.$.$.$.$.Q+| z#v#| A#~ k ",
"G X V h D = B#C#++$.$.$.$.$.m l e i M $ e w+G j _ m J ] J m D#$.$.$.$.$.E#$.$.$.$.$.,@< 9#: : m q ' ",
"e I e i - D 9.F##.$.$.$.$.$.# i h > j j j G j j z@_ ] ] k _ G#$.$.$.$.$.$.$.$.$.$.$.:+$ H#F h - ] < ",
"> 3@3@I#, X J#p.K#$.$.$.$.$.n.[+, 4@W 0.*.> L#; ^ z@( z@M#M#`+N#$.$.$.$.$.$.$.$.$.$.O#j.P#}@[+f.Q#R#",
"L#S#L L L#q.n@T#U#$.$.$.$.$.J.I.C#q.V#A.5@T#W#B#X#X#Y#Z#Z#Z#`# $$.$.$.$.$.$.$.$.$.$..$i.+$K.F.b@7 @$",
"V F # > e * e F #$$.$.$.$.$.= = - $ * * h h ;.F ~ l l ] K : m n $$$.$.$.$.$.$.$.$.$.@+F i w+E - p k ",
"e = - i > j M h *#$.$.$.$.$.~ ~ i F - * * = %$F ~ l ~ : >.< l q '#$.$.$.$.$.$.$.$.$.Z+>.m / ] 8 ' ~ ",
"i = M e W # w+i &$$.$.$.$.$.s *$j e , j * M %$M k 6 _ 6 k l l m t =$$.$.$.$.$.$.$.$.-$;$>$,$'$| m ] ",
" .f#/+a+/+0+(+P Q.$.$.$.$.$.'+z l _ K 6 ~ J @#6 ..>+d )$k+!$y 0+d W $.$.$.$.$.$.$.$.1+'+/+.+`.f#'+>+",
"d a+0+f#0+0+(+y '+z a+'+>+k+>+/+k _ K 6 ~ J @#6 '+>+y ~$`.t+P (+d >+'+'.c >+). .k+>+(+a+z k+~$a+ .'+"};
