/* XPM */
static char * south_wall_xpm[] = {
"50 50 501 2",
"  	c #CEC6B3",
". 	c #C1BAA7",
"+ 	c #AAA391",
"@ 	c #CEC7B5",
"# 	c #BAB4A4",
"$ 	c #C6C0B0",
"% 	c #9A9786",
"& 	c #B0AD9E",
"* 	c #C5BFAF",
"= 	c #C4BEAE",
"- 	c #C1BBAB",
"; 	c #BCB6A6",
"> 	c #B9B3A3",
", 	c #BBB5A5",
"' 	c #BBB6A3",
") 	c #CEC9B6",
"! 	c #AFAA97",
"~ 	c #C1BCA9",
"{ 	c #D0CBB8",
"] 	c #C3BEAB",
"^ 	c #B2AD9A",
"/ 	c #CAC5B2",
"( 	c #B8B3A0",
"_ 	c #BCB7A4",
": 	c #C5C0AD",
"< 	c #C7C2AF",
"[ 	c #C5C0AC",
"} 	c #C0BBA7",
"| 	c #C3BEAA",
"1 	c #C2BDA9",
"2 	c #C7C2AE",
"3 	c #C4BFAB",
"4 	c #BBB6A2",
"5 	c #C9C4B0",
"6 	c #BDB8A5",
"7 	c #9A9582",
"8 	c #C4BFAC",
"9 	c #C2BCAE",
"0 	c #BDB7A9",
"a 	c #C0B8A5",
"b 	c #B8B19E",
"c 	c #B4AD9B",
"d 	c #C2BBA9",
"e 	c #C2BCAC",
"f 	c #9F9C8B",
"g 	c #A5A293",
"h 	c #C0BAAA",
"i 	c #BDB7A7",
"j 	c #BFB9A9",
"k 	c #BFBAA7",
"l 	c #C0BBA8",
"m 	c #BEB9A6",
"n 	c #B9B4A1",
"o 	c #B4AF9C",
"p 	c #B7B29F",
"q 	c #BAB5A2",
"r 	c #BAB5A1",
"s 	c #BDB8A4",
"t 	c #BFBAA6",
"u 	c #B2AD99",
"v 	c #989380",
"w 	c #C3BBA8",
"x 	c #BCB5A2",
"y 	c #C6BFAD",
"z 	c #BEB7A5",
"A 	c #CEC8B8",
"B 	c #B0AD9C",
"C 	c #A9A697",
"D 	c #BEB8A8",
"E 	c #CBC5B5",
"F 	c #C3BDAD",
"G 	c #C9C3B3",
"H 	c #D2CCBC",
"I 	c #B8B2A2",
"J 	c #C2BDAA",
"K 	c #C6C1AE",
"L 	c #9A9484",
"M 	c #C8C2B2",
"N 	c #C9C1AE",
"O 	c #BFB8A5",
"P 	c #C5BEAC",
"Q 	c #BAB3A1",
"R 	c #AEAB9A",
"S 	c #ADAA9B",
"T 	c #B7B1A1",
"U 	c #B5AF9F",
"V 	c #C7C1B1",
"W 	c #B2AC9C",
"X 	c #B6B0A0",
"Y 	c #908A7A",
"Z 	c #D1C9B6",
"` 	c #C5BEAB",
" .	c #C1BAA8",
"..	c #C7C0AE",
"+.	c #A8A594",
"@.	c #B4B1A2",
"#.	c #CCC6B6",
"$.	c #AFA999",
"%.	c #928C7C",
"&.	c #C8C3B0",
"*.	c #C6BEAB",
"=.	c #B9B2A0",
"-.	c #CCC5B3",
";.	c #9E9B8A",
">.	c #C1BBAD",
",.	c #BCB6A8",
"'.	c #B4AEA0",
").	c #BEB8AA",
"!.	c #B6B0A2",
"~.	c #C4BEB0",
"{.	c #C0BAAC",
"].	c #BAB4A6",
"^.	c #BFB9AB",
"/.	c #BBB5A7",
"(.	c #C6C0B2",
"_.	c #C9C3B5",
":.	c #C5BFB1",
"<.	c #989284",
"[.	c #AAA28F",
"}.	c #ABA491",
"|.	c #A59E8C",
"1.	c #B1AA98",
"2.	c #A59F8F",
"3.	c #AEA898",
"4.	c #928F7E",
"5.	c #A09D8E",
"6.	c #AAA494",
"7.	c #ABA595",
"8.	c #A8A292",
"9.	c #A39D8D",
"0.	c #A7A191",
"a.	c #B7B1A3",
"b.	c #ADA799",
"c.	c #B0AA9C",
"d.	c #B2AC9E",
"e.	c #B1AB9D",
"f.	c #A9A395",
"g.	c #A39D8F",
"h.	c #B9B3A5",
"i.	c #A7A193",
"j.	c #ABA597",
"k.	c #AEA89A",
"l.	c #B3AD9F",
"m.	c #A49E8E",
"n.	c #ACA696",
"o.	c #ADA797",
"p.	c #A29C8C",
"q.	c #A8A294",
"r.	c #A6A092",
"s.	c #ACA698",
"t.	c #8D8779",
"u.	c #B2ACA0",
"v.	c #B0AA9E",
"w.	c #A69E8B",
"x.	c #A7A08E",
"y.	c #A29B89",
"z.	c #9E9888",
"A.	c #A6A394",
"B.	c #A19B8B",
"C.	c #A6A090",
"D.	c #958F81",
"E.	c #A19B8D",
"F.	c #847E70",
"G.	c #A59F91",
"H.	c #A49E90",
"I.	c #9D9789",
"J.	c #918B7D",
"K.	c #A7A096",
"L.	c #B1AB9B",
"M.	c #8E887A",
"N.	c #B5AFA3",
"O.	c #BFB9AD",
"P.	c #C4BEB2",
"Q.	c #BFBCA9",
"R.	c #BCB9A6",
"S.	c #C9C2B0",
"T.	c #BCB5A3",
"U.	c #C5BCAB",
"V.	c #BBB4A2",
"W.	c #C3BCAA",
"X.	c #B8B19F",
"Y.	c #CBC4B2",
"Z.	c #BFB8A6",
"`.	c #B9B4A2",
" +	c #969184",
".+	c #7F7B71",
"++	c #5F5C53",
"@+	c #4A4842",
"#+	c #26241F",
"$+	c #141311",
"%+	c #272622",
"&+	c #383630",
"*+	c #494740",
"=+	c #69665E",
"-+	c #7B776E",
";+	c #8E8980",
">+	c #ACA79C",
",+	c #BDB7AC",
"'+	c #C2BFAC",
")+	c #BEBBA8",
"!+	c #CCC3B2",
"~+	c #C4BDAB",
"{+	c #B5AE9C",
"]+	c #B1AC99",
"^+	c #A8A494",
"/+	c #5E5B51",
"(+	c #070705",
"_+	c #000000",
":+	c #201F1C",
"<+	c #6E6C60",
"[+	c #A09E8E",
"}+	c #B6B19E",
"|+	c #C8C1AF",
"1+	c #C7BEAD",
"2+	c #BDB6A4",
"3+	c #C0B9A7",
"4+	c #C9C4B1",
"5+	c #B8B3A1",
"6+	c #686559",
"7+	c #908D7E",
"8+	c #B8AF9E",
"9+	c #CDC8B5",
"0+	c #BBB6A4",
"a+	c #5B594F",
"b+	c #918D7F",
"c+	c #B2A998",
"d+	c #B3AC9A",
"e+	c #B3AE9B",
"f+	c #CCC7B4",
"g+	c #68655A",
"h+	c #8E8A7B",
"i+	c #BBB2A1",
"j+	c #B0A997",
"k+	c #9B9787",
"l+	c #2A2824",
"m+	c #807C71",
"n+	c #A5A093",
"o+	c #8A8477",
"p+	c #BFB9AC",
"q+	c #B6B0A1",
"r+	c #A8A296",
"s+	c #9E998E",
"t+	c #8B867D",
"u+	c #65615B",
"v+	c #272522",
"w+	c #8D897B",
"x+	c #C2B9A8",
"y+	c #CAC3B1",
"z+	c #B6AF9D",
"A+	c #615E54",
"B+	c #777468",
"C+	c #B9B3A4",
"D+	c #8A8476",
"E+	c #CAC4B4",
"F+	c #B8B2A6",
"G+	c #C0BAAE",
"H+	c #AEAC9B",
"I+	c #7B796D",
"J+	c #949081",
"K+	c #C1B8A7",
"L+	c #BCB7A5",
"M+	c #0F0E0B",
"N+	c #6D6A5F",
"O+	c #CDC7B9",
"P+	c #C7C1B3",
"Q+	c #ADA897",
"R+	c #A7A291",
"S+	c #CCC6B8",
"T+	c #948E80",
"U+	c #B5AFA1",
"V+	c #B8B2A4",
"W+	c #C3BDAF",
"X+	c #A29D8D",
"Y+	c #9F9A8B",
"Z+	c #BAB5A3",
"`+	c #898375",
" @	c #A6A291",
".@	c #9E9A8A",
"+@	c #CFC9BB",
"@@	c #8F897B",
"#@	c #B7B2A0",
"$@	c #45433B",
"%@	c #B1AC9A",
"&@	c #D1CBBD",
"*@	c #B4AE9E",
"=@	c #C6C0B4",
"-@	c #C3BDB1",
";@	c #BAB4A8",
">@	c #56544A",
",@	c #262520",
"'@	c #8A857A",
")@	c #C8C2B4",
"!@	c #BEB8AC",
"~@	c #C7C1B5",
"{@	c #C5BFB3",
"]@	c #C2BCB0",
"^@	c #545149",
"/@	c #8A867C",
"(@	c #7D786C",
"_@	c #CFCAB7",
":@	c #A8A390",
"<@	c #BBB5A9",
"[@	c #C1BBAF",
"}@	c #BDB7AB",
"|@	c #C9C3B7",
"1@	c #B7B1A5",
"2@	c #AAA498",
"3@	c #A7A195",
"4@	c #C5BEB4",
"5@	c #615D55",
"6@	c #0C0B09",
"7@	c #58554E",
"8@	c #7A766C",
"9@	c #979286",
"0@	c #B2AC9F",
"a@	c #B9B3A7",
"b@	c #B6AFA5",
"c@	c #B9B2A8",
"d@	c #A9A298",
"e@	c #ADA69E",
"f@	c #BCB6AA",
"g@	c #9B9585",
"h@	c #948E7E",
"i@	c #9A9486",
"j@	c #9C968A",
"k@	c #938D81",
"l@	c #827C70",
"m@	c #8F897D",
"n@	c #999385",
"o@	c #8D887A",
"p@	c #4A463F",
"q@	c #080706",
"r@	c #4C4841",
"s@	c #787368",
"t@	c #969082",
"u@	c #938D7F",
"v@	c #908A7C",
"w@	c #999387",
"x@	c #9A9488",
"y@	c #9F988E",
"z@	c #928B81",
"A@	c #958E84",
"B@	c #979185",
"C@	c #8C8678",
"D@	c #969080",
"E@	c #8F8979",
"F@	c #979181",
"G@	c #999383",
"H@	c #8B877C",
"I@	c #2F2D29",
"J@	c #302E2A",
"K@	c #918C82",
"L@	c #B5AFA2",
"M@	c #BCB5AB",
"N@	c #BEB7AD",
"O@	c #A09A8C",
"P@	c #B5B09D",
"Q@	c #A49E92",
"R@	c #A29C90",
"S@	c #BBB6A6",
"T@	c #8E897D",
"U@	c #514E47",
"V@	c #4A4740",
"W@	c #AAA496",
"X@	c #CBC6B3",
"Y@	c #8F8A7D",
"Z@	c #716D64",
"`@	c #3A3832",
" #	c #252420",
".#	c #A8A394",
"+#	c #888274",
"@#	c #AFA99B",
"##	c #999487",
"$#	c #7B776D",
"%#	c #3D3B35",
"&#	c #B8B39F",
"*#	c #A5A08F",
"=#	c #757165",
"-#	c #1F1E1A",
";#	c #928D81",
">#	c #CBC5B7",
",#	c #56534A",
"'#	c #54514A",
")#	c #A29F8E",
"!#	c #A19E8F",
"~#	c #BEB9A7",
"{#	c #272621",
"]#	c #C6C0B1",
"^#	c #8F8A77",
"/#	c #C7BFAC",
"(#	c #C2BBA8",
"_#	c #A4A190",
":#	c #79766A",
"<#	c #B8B2A3",
"[#	c #8E8976",
"}#	c #C5BDAA",
"|#	c #A5A291",
"1#	c #AAA798",
"2#	c #928E80",
"3#	c #8D8875",
"4#	c #B7B09E",
"5#	c #C2BAA7",
"6#	c #C0B9A6",
"7#	c #A3A08F",
"8#	c #ABA899",
"9#	c #8C887A",
"0#	c #AFAA9B",
"a#	c #C1B9A6",
"b#	c #ACA99A",
"c#	c #B0AB98",
"d#	c #656258",
"e#	c #BFB9AA",
"f#	c #908B78",
"g#	c #C3BCA9",
"h#	c #858075",
"i#	c #8A867A",
"j#	c #B3AD9E",
"k#	c #9E9A89",
"l#	c #58564E",
"m#	c #C4BCA9",
"n#	c #A8A596",
"o#	c #79756B",
"p#	c #191815",
"q#	c #726E64",
"r#	c #A39E90",
"s#	c #989485",
"t#	c #1E1D19",
"u#	c #938E82",
"v#	c #8C8774",
"w#	c #A19E8D",
"x#	c #A4A192",
"y#	c #1B1A17",
"z#	c #656257",
"A#	c #878476",
"B#	c #9A9586",
"C#	c #B7B2A1",
"D#	c #B8B4A2",
"E#	c #A19D8C",
"F#	c #514F47",
"G#	c #46433D",
"H#	c #C0BAAB",
"I#	c #8A8572",
"J#	c #B3AD9D",
"K#	c #787568",
"L#	c #131310",
"M#	c #A5A18F",
"N#	c #BCB7A3",
"O#	c #BEB9A5",
"P#	c #B9B4A0",
"Q#	c #98937F",
"R#	c #C1BCA8",
"S#	c #B3AE9A",
"T#	c #797569",
"U#	c #201F1B",
"V#	c #A5A090",
"W#	c #777368",
"X#	c #5A584E",
"Y#	c #AEA99A",
"Z#	c #878171",
"`#	c #B0AA9A",
" $	c #9F9989",
".$	c #AFAA9C",
"+$	c #9A9589",
"@$	c #747066",
"#$	c #45423C",
"$$	c #555349",
"%$	c #928E7E",
"&$	c #868072",
"*$	c #A5A08D",
"=$	c #ADA895",
"-$	c #A9A393",
";$	c #9C9688",
">$	c #A29C8E",
",$	c #9F9A8C",
"'$	c #6A665C",
")$	c #555149",
"!$	c #3B3932",
"~$	c #2B2924",
"{$	c #1B1A16",
"]$	c #0C0B08",
"^$	c #2C2A25",
"/$	c #3A3830",
"($	c #4D4A40",
"_$	c #676457",
":$	c #7C7869",
"<$	c #938F7D",
"[$	c #9F9A87",
"}$	c #A19C89",
"|$	c #A29D8A",
"1$	c #8B8577",
"2$	c #9E988A",
"3$	c #A39E8B",
"4$	c #CFC9B9",
"5$	c #8A8474",
"6$	c #B7B29E",
"7$	c #CBC6B2",
"8$	c #B0AB97",
"9$	c #CCC7B3",
"0$	c #B6B19D",
"a$	c #C6C1AD",
"b$	c #CFC8B6",
"  . + @ # $ % & * = - ; > , - $ ' ) ! ~ { ' ] ^ ] / ] ( _ ] : < [ } | 1 2 3 4 5 : _ 6 ~ 7 ( _ 8 9 0 ",
"a b c d - e f g - - h i > > ; j 8 / k l : k m ( ] ] ] l n o p q | r s t | s u 3 l n n _ v _ ~ : e , ",
"w x y z A = B C i h - h D ; i D e D E F i * i , = i G H e I i j < 6 l J K k o : F j D i L F M M ] q ",
"N O P Q M D R S T # i i , # , i I U V V D V = # ; W F A ; > j X 6 _ k ' k k o m D j j I Y > h j 2 s ",
"Z `  ...* h +.@.= * $ = e - F $ > I ; $ - e #.i h I = V > j = $.# e V # h G D j D = V D %.> h - &.m ",
"*.. =.-.D j ;.& * $ = - ; , i h >.,.'.).,.!.~.{.0 ].{.^./.(._.!.U j = T i M i i ].).:.9 <.].^.9 h # ",
"[.}.|.1.2.3.4.5.6.7.7.8.2.9.2.0.a.b.c.d.e.f.g.h.i.i.f.j.k.l.'.e.m.2.7.0.n.o.p.6.q.r.s.d.t.s.s.k.u.v.",
"w.}.x.y.z.3.;.A.B.m.C.C.m.m.C.8.g.D.k.q.f.E.F.k.G.G.H.f.j.g.E.s.r.I.g.q.b.H.<.f.f.E.G.e.J.b.q.r.K.K.",
"F # , = = ; ; * ~ 6 K 6 ( 8 8 J _ ( L.j V (.M.~.> $.; _.,.N.O.P.Q.R.n &.S.T. .U.Q V.W.X. .Y.c 1. .Z.",
"* j D e e D j * : ~ &.8 ] 8 _ 8 6 `. +.+++@+#+$+%+&+*+=+-+;+>+,+'+)+p k d T...!+Z.Z.~+Q Z.~+1.{+ .W.",
"* = e h h - e F < ] ] k : m ]+^+/+(+_+_+_+_+_+_+_+_+_+_+_+_+_+:+<+[+}+' z z |+1+y d W.2+3+Z.{+3+3+y ",
"j = F j j = * - : 4+J }+l 5+6+_+_+_+_+_+_+_+_+_+_+_+_+_+_+_+_+_+_+_+7+k  .3+W.8+S. .V.z P d z Y.Z.W.",
"I j e D j * * j m 9+4+}+0+a+_+_+_+_+_+_+_+_+_+_+_+_+_+_+_+_+_+_+_+_+b+k d  . .c+-.3+d+T.S.~+W.Y. .3+",
"U , D i j = = j e+K f+' g+_+_+_+_+_+_+_+_+_+_+_+_+_+_+_+_+_+_+_+_+_+h+_ 3+ .y i+-.W.j+V.S.d d d W.3+",
"# , , ; i h e F }+6 < k+_+_+_+_+_+_+l+m+n+N.o+p+, h q+r+s+t+u+v+_+_+w+6 d d |+x+y+S.z+Z.y+ .d 2+3+ .",
"j ; # , ; i - $ : _ 8 A+_+_+_+_+_+B+C+D D 9 D+!.* E+e ).(.O.F+G+H+I+J+] ..d y K+y @ 2+~+-.d y Z.T. .",
"o < 4+: ! 8 : m l p L+M+_+_+_+_+N+8 = i ; O+J.h.{.0 ^.).].>.P+>.* e e $ * h D h }+l q m 8 &.f+m J m ",
"n ] K ~ e+l K ~ m }+Q+_+_+_+_+_+R+~ M - i S+T+9 ].).:.>.U+V+W+:.# i = G $ j i j }+~ 6 k ~ J : p ~ 6 ",
"l 6 ] 6 q ' K ] 6 p X+_+_+_+_+_+5+] #.* ; (.M.)./.^.P+9 !.V+W+~.X ; = V e ; D F p ] l ~ l 6 J ( : ~ ",
"K n J 6 J p ] k l q Y+_+_+_+_+_+Z+~ V F i (.`+U+- - * F ; j = j ^.>.9 {.,./.^.:.q K J ] l 6 K ~ : J ",
"< ( J ~ K }+m ' : k  @_+_+_+_+_+.@q ; D e +@@@a.D h M $ ; D e D P+(.W+^.0 ).^.{.k &.J J m ' < K k 6 ",
"8 n ~ : ] ( ' n &.] #@_+_+_+_+_+$@%@i j = &@J.].*@i E G # T D i P.=@=@P.-@-@O.;@J &.l k ' ( ] 8 m 6 ",
"l _ m < _ _ _ 6 < ] k >@_+_+_+_+_+,@'@q+D )@@@>.}+n ] K l k 6 o !@P.~@{@-@-@]@!@k ] _ k 6 ( J ~ ~ J ",
"6 6 ' < }+k 6 ~ : ] m k+_+_+_+_+_+_+_+_+^@/@(@_.l }+p ~ / _@~ :@<@-@=@[@}@[@=@|@n m q l ~ 6 : J l ] ",
", T {.).1@2@3@4@).d.a.].5@_+_+_+_+_+_+_+_+_+_+6@7@8@9@0@a.V+h.U+U+d.[@a@b@c@d@e@G+f@G+h.{.U 3.* L.*@",
"g@h@<.i@j@k@l@m@<.D.n@i@o@p@_+_+_+_+_+_+_+_+_+_+_+_+_+q@r@s@t@<.u@v@I.w@x@y@z@A@B@w@w@v@C@D@E@F@G@G@",
"h D = ~.)@G+r+3@>.)@_.(.9 /.H@I@_+_+_+_+_+_+_+_+_+_+_+_+_+_+J@K@L@U+0 !@[@{@M@N@!@{@[@h.O@V h I M $ ",
"P@m E+= W+/.Q@R@i G * h F , T S@T@U@_+_+_+_+_+_+_+_+_+_+_+_+_+_+V@W@0 ^.-@P.O.N@<@[@}@,.M.F - X E+G ",
"q J X@= * >.W@i.D M e i = j X ; = * c.Y@Z@`@_+_+_+_+_+_+_+_+_+_+_+ #.#{.~.[@[@G+!@O.f@9 +#D j i h h ",
"3 ~ J m G M @#q.F V = - $ * D ; F D G X , E+.###$#`@_+_+_+_+_+_+_+_+%#; W+).:.{@P.[@}@~.M.D - F , i ",
"} &#( p l i 0.2.m m J ~ 6 k l ( k l X@( ' 4+q : / X@*#=#-#_+_+_+_+_+_+;#= ,._.>#[@O.1@!.M.D i , F = ",
"t s | l l T 0.L.m 6 K : q m : _ P@m 8 }+( l q ~ K < P@o 0+,#_+_+_+_+_+'#j '.~.P+-@P.a@@#T+* e I e e ",
"*.. T.P * $ )#!#; - V F ; e V D ] : 6 : ' ] q 6 ~ k _ 6 : ~#{#_+_+_+_+_+]#; $.V k ] J n ^#9+J ' Q d ",
"/#(#z P = * _#g # j $ = j = $ , ' m q m 6 K J l q J 8 m 6 8 :#_+_+_+_+_+<#= > * 6 J : 6 [#< k l  .d ",
"}#(#z W.h e |#1## ; F = e $ * > _ l J n k 8 : q _ &.X@~ _ ] 2#_+_+_+_+_+W@V D D ' ~ K J 3#l ' : Q 4#",
"5#6#2+ ., i 7#8#i , h e - $ * # _ 8 f+( l k K ( q 8 < J ] / 9#_+_+_+_+_+0#V h , 6 k : ] [#m n K P ~+",
"a#6#z  .# i 7#b#e i D h D = $ D e+l 9+n m 6 < m c#q l l 8 / d#_+_+_+_+_+e#V e h l k J ~ f#l n ] z 3+",
"w g#3+P D h _#8#V h h#i#j#- V F P@J X@m ' q l _ o _ ] J 6 k#_+_+_+_+_+l#V F - - ~ l ~ m ^#8 q m P |+",
"m#g# ...e e _#n#G e o#_+p#q#r#h 6 : : : 6 l ' ' l l 8 < s#t#_+_+_+_+_+u#F e e D m J ] ' v#: _ _ z 2+",
"w (#3+..F e w#x#G F $#_+_+_+_+y#z#A#B#C#D#< ~ l Z+E#A#F#_+_+_+_+_+_+G#H#e V G j ' 8 K ' I#: 6 ' S.W.",
"#.J#$ D > $ 3.2.} 4 K#_+_+_+_+_+_+_+_+_+_+_+_+_+_+_+_+_+_+_+_+_+_+L#M#3 N#O#P#2 2 &#s | Q#R#| S#~ k ",
"G X V h D = 6.8.: m T#_+_+_+_+_+_+_+_+_+_+_+_+_+_+_+_+_+_+_+_+_+U#V#q : ~ l P@~ ~ 6 _ < f#: : m q ' ",
"e I e i - D 2.n.= i W#_+_+_+_+_+_+_+_+_+_+_+_+_+_+_+_+_+_+_+_+X#Y#h U $ V * T h > h # $ Z#F h - ] < ",
"> L.L.`#, X  $7.!.c..$+$@$#$_+_+_+_+_+_+_+_+_+_+_+_+_+_+_+$$%$_ '.h.@#h./.{.'.h.c.a.!.h.&$a.U+d.*$=$",
"-$p.L L -$0.F@B.;$i@>$q.g.E.,$T@(@'$)$!$~${$]$^$/$($_$:$<$[$}$|$;$j.>$O@;$q.O@>$E.E.j.g.1$r.q.2$7 3$",
"V F # > e * e F I T - G = e * = - $ * * h h %.F ~ l l ] K : m n D 4$V e T - , h - , E+F i E+E - p k ",
"e = - i > j M h ' ( ~ < ~ k J ~ i F - * * = 5$F ~ l ~ : &.< l q J / ] 4+m 6 }+8 l n J &.m / ] 8 ' ~ ",
"i = M e W # E+i t 4 R#[ O#4 O#O#j e , j * M 5$M k 6 _ 6 k l l m t s 6$7$3 P#8$2 t r 4 9$0$a$6$| m ] ",
" .|+2+S.2+T.3+P  .2+S.W.~+T.~+z l _ K 6 ~ J ^#6 ..~+d d+V.b$y T.d y y V.4#y @ d d P V.W.2+Z.X.|+W.~+",
"d S.T.|+T.T.3+y W.z S.W.~+V.~+2+k _ K 6 ~ J ^#6 W.~+y z+X.y+P 3+d ~+W.=.c ~+-. .V.~+3+S.z V.z+S. .W."};
